<svg shape-rendering="crispEdges" viewBox="0 0 21 21" xmlns="http://www.w3.org/2000/svg"><path d="m0 0h21v21h-21z" fill="#fff"/><path d="m0 .5h7m1 0h1m1 0h1m1 0h1m1 0h7m-21 1h1m5 0h1m3 0h2m2 0h1m5 0h1m-21 1h1m1 0h3m1 0h1m1 0h2m1 0h2m1 0h1m1 0h3m1 0h1m-21 1h1m1 0h3m1 0h1m1 0h2m1 0h2m1 0h1m1 0h3m1 0h1m-21 1h1m1 0h3m1 0h1m1 0h1m2 0h2m1 0h1m1 0h3m1 0h1m-21 1h1m5 0h1m2 0h3m2 0h1m5 0h1m-21 1h7m1 0h1m1 0h1m1 0h1m1 0h7m-9 1h1m-13 1h4m2 0h1m1 0h4m1 0h1m2 0h3m1 0h1m-19 1h2m1 0h1m3 0h1m3 0h8m-19 1h1m3 0h1m2 0h1m3 0h1m3 0h1m1 0h2m-21 1h1m2 0h1m4 0h1m3 0h1m2 0h1m1 0h1m1 0h1m-19 1h2m1 0h1m1 0h1m2 0h3m2 0h1m1 0h2m2 0h1m-13 1h1m1 0h3m3 0h1m-17 1h7m6 0h1m2 0h1m-17 1h1m5 0h1m2 0h1m3 0h1m1 0h6m-21 1h1m1 0h3m1 0h1m2 0h1m1 0h1m4 0h1m1 0h2m-20 1h1m1 0h3m1 0h1m1 0h1m1 0h3m1 0h2m3 0h1m-20 1h1m1 0h3m1 0h1m1 0h1m1 0h6m2 0h1m-19 1h1m5 0h1m1 0h1m4 0h4m3 0h1m-21 1h7m1 0h1m2 0h1m2 0h1m1 0h3" stroke="#341334"/></svg>