<svg height="1080pt" viewBox="0 0 1920 1080" width="1920pt" xmlns="http://www.w3.org/2000/svg" xmlns:xlink="http://www.w3.org/1999/xlink"><defs><g id="a"><path d="m8.09375.21875c3.578125 0 6.15625-1.84375 6.515625-5.4375h-3.21875c-.265625 1.875-1.53125 2.78125-3.328125 2.78125-2.40625 0-3.78125-1.75-3.78125-4.75v-.15625c0-3 1.46875-4.796875 3.75-4.796875 1.828125 0 2.8125.9375 3.046875 2.6875h3.375c-.34375-3.578125-2.9375-5.28125-6.4375-5.28125-4.125 0-7.203125 3-7.203125 7.40625v.15625c0 4.46875 2.53125 7.390625 7.28125 7.390625zm0 0"/></g><g id="b"><path d="m8.265625.21875c4.515625 0 7.484375-3.140625 7.484375-7.46875v-.15625c0-4.359375-3.109375-7.3125-7.46875-7.3125-4.296875 0-7.46875 3.0625-7.46875 7.390625v.15625c0 4.25 2.90625 7.390625 7.453125 7.390625zm.0625-2.609375c-2.375 0-4.09375-1.828125-4.09375-4.796875v-.15625c0-2.921875 1.53125-4.78125 4.046875-4.78125 2.53125 0 4.03125 1.9375 4.03125 4.75v.171875c0 2.921875-1.53125 4.8125-3.984375 4.8125zm0 0"/></g><g id="c"><path d="m1.5625 0h2.9375v-10.1875l4.046875 10.1875h1.078125l4.015625-10.1875v10.1875h3.265625v-14.515625h-4.265625l-3.34375 9.03125-3.390625-9.03125h-4.34375zm0 0"/></g><g id="d"><path d="m7.421875.21875c3.921875 0 6.140625-2.046875 6.140625-6v-8.734375h-3.3125v8.53125c0 2.65625-.859375 3.59375-2.796875 3.59375-2 0-2.703125-1.0625-2.703125-3.46875v-8.65625h-3.3125v8.859375c0 3.84375 2.171875 5.875 5.984375 5.875zm0 0"/></g><g id="e"><path d="m1.640625 0h3.3125v-14.515625h-3.3125zm0 0"/></g><g id="f"><path d="m1.5625 0h9.78125v-2.5625h-6.515625v-3.609375h4.953125v-2.390625h-4.953125v-3.390625h6.1875v-2.5625h-9.453125zm0 0"/></g><g id="g"><path d="m1.5625 0h3.265625v-5.609375h1.421875l3.46875 5.609375h3.5l-3.84375-6.171875c1.703125-.5 2.984375-1.65625 2.984375-3.859375v-.078125c0-3-2.171875-4.40625-5.59375-4.40625h-5.203125zm3.265625-7.828125v-4.171875h1.84375c1.59375 0 2.484375.515625 2.484375 2v.078125c0 1.390625-.828125 2.09375-2.484375 2.09375zm0 0"/></g><g id="h"><path d="m16.1875.875c6.484375 0 10.125-2.53125 12.484375-5.859375v4.984375h11.140625v-26.9375c0-11.21875-7.1875-15.328125-17.296875-15.328125s-17.859375 4.34375-18.5625 14.140625h10.8125c.484375-3.546875 2.53125-5.84375 7.03125-5.84375 5.21875 0 6.71875 2.6875 6.71875 7.578125v1.65625h-4.65625c-12.640625 0-21.484375 3.640625-21.484375 13.28125 0 8.6875 6.3125 12.328125 13.8125 12.328125zm3.40625-7.984375c-4.1875 0-6-1.96875-6-4.984375 0-4.421875 3.859375-5.84375 10.5-5.84375h4.421875v3.484375c0 4.578125-3.875 7.34375-8.921875 7.34375zm0 0"/></g><g id="i"><path d="m5.0625 0h11.453125v-20.703125c0-7.890625 4.890625-10.65625 13.34375-10.578125v-10.671875c-6.71875.078125-10.734375 3-13.34375 8.53125v-7.890625h-11.453125zm0 0"/></g><g id="j"><path d="m20.140625.796875c3.078125 0 5.375-.5625 6.953125-1.109375v-8.84375c-1.34375.546875-2.609375.78125-4.34375.78125-2.921875 0-4.578125-1.578125-4.578125-4.890625v-19.921875h8.6875v-8.125h-8.6875v-8.9375h-11.375v8.9375h-5.296875v8.125h5.296875v20.9375c0 8.609375 4.65625 13.046875 13.34375 13.046875zm0 0"/></g><g id="k"><path d="m10.984375-46.921875c3.703125 0 6.546875-2.6875 6.546875-6.25 0-3.546875-2.84375-6.234375-6.546875-6.234375-3.640625 0-6.484375 2.6875-6.484375 6.234375 0 3.5625 2.84375 6.25 6.484375 6.25zm-5.609375 46.921875h11.375v-41.3125h-11.375zm0 0"/></g><g id="l"><path d="m23.78125.875c12 0 19.109375-6.796875 19.75-16.59375h-10.34375c-.5625 5.296875-4.28125 7.984375-8.859375 7.984375-6.390625 0-10.109375-4.28125-10.109375-12.5625v-.640625c0-7.890625 3.953125-12.328125 9.875-12.328125 4.65625 0 7.578125 2.21875 8.375 7.03125h10.828125c-1.03125-11.84375-9.875-16.03125-19.4375-16.03125-11.765625 0-21.328125 8.140625-21.328125 21.484375v.640625c0 13.5 9.15625 21.015625 21.25 21.015625zm0 0"/></g><g id="m"><path d="m5.0625 14.0625h11.453125v-20.375c2.125 4.015625 6.796875 7.1875 13.1875 7.1875 10.265625 0 18.015625-7.671875 18.015625-21.34375v-.625c0-13.671875-7.90625-21.171875-18.015625-21.171875-6.078125 0-10.90625 3.484375-13.1875 7.421875v-6.46875h-11.453125zm21.25-22.125c-6.25 0-10.203125-4.03125-10.203125-12.3125v-.640625c0-8.296875 4.109375-12.484375 10.125-12.484375 5.765625 0 9.875 4.109375 9.875 12.484375v.640625c0 8.046875-3.484375 12.3125-9.796875 12.3125zm0 0"/></g><g id="n"><path d="m5.0625 0h11.453125v-23.859375c0-6.078125 3.703125-9.078125 8.609375-9.078125 5.046875 0 7.265625 2.6875 7.265625 8.296875v24.640625h11.453125v-26.3125c0-11.046875-5.765625-15.953125-13.90625-15.953125-6.875 0-11.375 3.390625-13.421875 7.5v-6.546875h-11.453125zm0 0"/></g><g id="o"><path d="m20.0625.875c10.90625 0 17.390625-4.671875 17.390625-13.59375 0-8.84375-5.6875-11.453125-16.046875-12.953125-6-.875-7.96875-1.90625-7.96875-4.5 0-2.53125 2.125-4.265625 5.84375-4.265625 3.9375 0 5.84375 1.578125 6.46875 4.96875h10.515625c-1.03125-9.484375-7.90625-12.796875-17.0625-12.796875-8.453125 0-16.359375 4.265625-16.359375 12.875 0 8.0625 4.265625 11.21875 15.25 12.875 5.921875.875 8.375 2.0625 8.375 4.90625s-2.0625 4.5-6.484375 4.5c-4.96875 0-6.796875-2.140625-7.265625-5.84375h-10.671875c.40625 8.921875 6.875 13.828125 18.015625 13.828125zm0 0"/></g><g id="p"><path d="m5.0625 0h11.453125v-23.859375c0-6.078125 3.703125-9.078125 8.609375-9.078125 5.046875 0 7.265625 2.6875 7.265625 8.296875v24.640625h11.453125v-26.3125c0-11.046875-5.765625-15.953125-13.90625-15.953125-6.875 0-11.375 3.390625-13.421875 7.5v-25.28125h-11.453125zm0 0"/></g><g id="q"><path d="m24.09375.875c11.296875 0 18.40625-4.984375 19.75-13.90625h-10.828125c-.703125 3.46875-3.3125 5.765625-8.609375 5.765625-6.234375 0-9.953125-3.953125-10.265625-10.828125h29.78125v-3.15625c0-14.78125-9.484375-21.015625-20.140625-21.015625-12.015625 0-21.25 8.453125-21.25 21.484375v.640625c0 13.1875 9.078125 21.015625 21.5625 21.015625zm-9.796875-26c.875-5.84375 4.34375-9.234375 9.484375-9.234375 5.453125 0 8.609375 3 9 9.234375zm0 0"/></g><g id="r"><path d="m24.25.875c12.40625 0 21.8125-8.296875 21.8125-21.34375v-.625c0-12.875-9.328125-21.171875-21.734375-21.171875s-21.796875 8.453125-21.796875 21.40625v.640625c0 12.875 9.390625 21.09375 21.71875 21.09375zm.078125-8.703125c-6.46875 0-10.109375-4.734375-10.109375-12.640625v-.625c0-7.90625 3.796875-12.484375 10.109375-12.484375 6.40625 0 10.109375 4.75 10.109375 12.640625v.5625c0 7.8125-3.703125 12.546875-10.109375 12.546875zm0 0"/></g><g id="s"><path d="m5.0625 0h11.453125v-24.40625c0-5.609375 3.546875-8.453125 7.96875-8.453125 4.03125 0 6.484375 2.359375 6.484375 7.65625v25.203125h11.375v-24.40625c0-5.609375 3.5625-8.453125 7.984375-8.453125 4.109375 0 6.46875 2.359375 6.46875 7.65625v25.203125h11.375v-26.46875c0-10.984375-5.921875-15.796875-13.578125-15.796875-5.21875 0-10.59375 2.21875-13.90625 7.1875-1.984375-4.890625-6.078125-7.1875-11.53125-7.1875-6.171875 0-10.59375 3.390625-12.640625 7.265625v-6.3125h-11.453125zm0 0"/></g><g id="t"><path d="m18.796875.875c6.796875 0 10.984375-3.171875 13.125-7.359375v6.484375h11.375v-41.3125h-11.375v24.25c0 6.078125-3.796875 9.078125-8.609375 9.078125-4.90625 0-7.203125-2.6875-7.203125-8.296875v-25.03125h-11.375v26.625c0 10.8125 6.015625 15.5625 14.0625 15.5625zm0 0"/></g><g id="u"><path d="m6.953125 0h11.375v-33.1875h9v-8.125h-9v-5.0625c0-3.15625 1.5-5.453125 5.140625-5.453125 1.65625 0 3.078125.3125 4.1875.71875v-8.609375c-1.828125-.5625-3.484375-.796875-5.9375-.796875-9.15625 0-14.765625 4.828125-14.765625 14.453125v4.75h-5.453125v8.125h5.453125zm0 0"/></g><g id="v"><path d="m20.546875.875c6.078125 0 11.125-3.5625 13.265625-7.75v6.875h11.375v-60.046875h-11.375v24.890625c-2.296875-4.1875-6.40625-7.109375-13.03125-7.109375-10.359375 0-18.171875 7.984375-18.171875 21.5625v.640625c0 13.75 7.890625 20.9375 17.9375 20.9375zm3.390625-8.9375c-5.6875 0-9.640625-4.03125-9.640625-12.234375v-.640625c0-8.21875 3.5625-12.5625 9.953125-12.5625 6.25 0 9.875 4.1875 9.875 12.40625v.625c0 8.375-4.1875 12.40625-10.1875 12.40625zm0 0"/></g><g id="w"><path d="m10.265625 14.0625h11.0625l22.359375-55.375h-10.984375l-9.234375 24.796875-10.03125-24.796875h-12.328125l16.421875 37.125zm0 0"/></g><g id="x"><path d="m5.375 0h11.375v-60.046875h-11.375zm0 0"/></g><g id="y"><path d="m6.421875 0h18.96875v-23.8125h4.46875l13.484375 23.8125h20.078125l-15.90625-27.53125c6.984375-2.6875 12-8 12-17.484375v-.375c0-14.03125-9.671875-21.109375-27.0625-21.109375h-26.03125zm18.96875-36.171875v-16h6.234375c6.140625 0 9.484375 2.140625 9.484375 7.53125v.375c0 5.390625-3.171875 8.09375-9.578125 8.09375zm0 0"/></g><g id="z"><path d="m6.421875 0h47.421875v-14.6875h-28.453125v-12.09375h21.484375v-13.578125h-21.484375v-11.4375h26.96875v-14.703125h-45.9375zm0 0"/></g><g id="A"><path d="m30.78125 1.109375c17.109375 0 26.78125-9.9375 26.78125-22.125 0-14.421875-8.640625-18.78125-25.484375-20.640625-8.265625-1.125-10.3125-2.796875-10.3125-6.515625 0-3.34375 2.59375-5.671875 7.71875-5.671875 5.203125 0 7.90625 2.421875 8.546875 7.15625h17.671875c-1.203125-14.046875-10.21875-20.734375-26.21875-20.734375-15.90625 0-25.765625 8.734375-25.765625 20.734375 0 13.390625 6.328125 18.96875 25.109375 21.203125 8 1.21875 10.515625 2.328125 10.515625 6.421875 0 3.90625-3.078125 6.59375-8.5625 6.59375-7.90625 0-10.046875-3.90625-10.5-8.640625h-18.140625c.5625 14.40625 10.046875 22.21875 28.640625 22.21875zm0 0"/></g><g id="B"><path d="m1.203125 0h17.765625l3.53125-12.375h22.046875l3.53125 12.375h20.1875l-21.109375-66.5h-24.65625zm32.375-51.0625 7.25 25.578125h-14.609375zm0 0"/></g><g id="C"><path d="m37.671875 1.109375c17.203125 0 29.65625-8.921875 30.96875-26.125h-18.984375c-.921875 7.34375-5.671875 10.875-12.359375 10.875-9.125 0-14.234375-6.78125-14.234375-18.78125v-.75c0-12.078125 5.390625-18.78125 13.953125-18.78125 6.6875 0 10.421875 3.71875 11.15625 10.515625h19.625c-1.578125-17.578125-13.578125-25.578125-30.875-25.578125-19.4375 0-33.953125 13.484375-33.953125 33.9375v.75c0 20.359375 11.453125 33.9375 34.703125 33.9375zm0 0"/></g><g id="D"><path d="m6.421875 0h18.96875v-22.40625h7.15625c16.46875 0 25.859375-7.546875 25.859375-21.484375v-.375c0-14.140625-8.46875-22.234375-26.6875-22.234375h-25.296875zm18.96875-35.4375v-16.734375h5.578125c5.953125 0 9.296875 2.328125 9.296875 8v.375c0 5.484375-3.25 8.359375-9.390625 8.359375zm0 0"/></g><g id="E"><path d="m37.765625 1.109375c21.46875 0 35.515625-13.9375 35.515625-34.40625v-.734375c0-20.65625-14.96875-33.390625-35.25-33.390625-19.890625 0-35.140625 13.578125-35.140625 33.84375v.75c0 20 13.390625 33.9375 34.875 33.9375zm.359375-14.96875c-9.203125 0-15.34375-6.96875-15.34375-19.0625v-.75c0-12.078125 5.859375-18.875 15.25-18.875 9.40625 0 15.34375 6.984375 15.34375 18.78125v.75c0 11.90625-5.859375 19.15625-15.25 19.15625zm0 0"/></g><g id="F"><path d="m6.421875 0h16.734375v-41.75l24.28125 41.75h18.40625v-66.5h-16.640625v37.484375l-21.296875-37.484375h-21.484375zm0 0"/></g><g id="G"><path d="m19.15625 0h19.15625v-51.796875h17.203125v-14.703125h-53.5625v14.703125h17.203125zm0 0"/></g><g id="H"><path d="m6.78125 0h19.265625v-66.5h-19.265625zm0 0"/></g><g id="I"><path d="m6.421875 0h17.015625v-41.390625l16.09375 41.390625h6.3125l16.28125-41.390625v41.390625h18.96875v-66.5h-24.359375l-12.75 35.4375-12.734375-35.4375h-24.828125zm0 0"/></g></defs><path d="m0 99.996094h1920v-22h-1920zm0 0" fill="#fffa00"/><path d="m0 99.996094h1920v-22h-1920zm0 0" fill="#fffa00"/><use x="106" xlink:href="#a" y="1045.4794"/><use x="120.5754" xlink:href="#b" y="1045.4794"/><use x="136.5312" xlink:href="#c" y="1045.4794"/><use x="154.4155" xlink:href="#c" y="1045.4794"/><use x="172.2998" xlink:href="#d" y="1045.4794"/><path d="m1.5625 0h2.921875v-10.328125l6.046875 10.328125h3.296875v-14.515625h-2.921875v9.5625l-5.53125-9.5625h-3.8125zm0 0" transform="translate(186.6925 1045.4794)"/><use x="201.4709" xlink:href="#e" y="1045.4794"/><path d="m4.40625 0h3.3125v-11.953125h3.90625v-2.5625h-11.140625v2.5625h3.921875zm0 0" transform="translate(207.4594 1045.4794)"/><path d="m5.046875 0h3.3125v-6.25l4.53125-8.265625h-3.1875l-2.890625 5.5625-2.9375-5.5625h-3.609375l4.78125 8.265625zm0 0" transform="translate(219.1725 1045.4794)"/><path d="m6.640625.21875c3.421875 0 5.53125-2.046875 5.53125-4.625 0-3-1.796875-3.953125-5.3125-4.40625-2.234375-.328125-2.703125-.8125-2.703125-1.84375 0-.96875.734375-1.640625 2.171875-1.640625 1.453125 0 2.21875.609375 2.421875 1.921875h3.015625c-.25-2.875-2.171875-4.34375-5.4375-4.34375-3.203125 0-5.265625 1.84375-5.265625 4.328125 0 2.796875 1.515625 3.921875 5.234375 4.40625 2.125.328125 2.734375.734375 2.734375 1.890625 0 1.125-.953125 1.921875-2.390625 1.921875-2.15625 0-2.703125-1.078125-2.84375-2.375h-3.140625c.171875 2.90625 2 4.765625 5.984375 4.765625zm0 0" transform="translate(235.61549 1045.4794)"/><use x="247.9985" xlink:href="#f" y="1045.4794"/><use x="259.46799" xlink:href="#g" y="1045.4794"/><path d="m5.234375 0h3.78125l4.828125-14.515625h-3.09375l-3.4375 11.140625-3.453125-11.140625h-3.46875zm0 0" transform="translate(272.0134 1045.4794)"/><use x="285.6347" xlink:href="#e" y="1045.4794"/><use x="291.6232" xlink:href="#a" y="1045.4794"/><use x="306.19861" xlink:href="#f" y="1045.4794"/><path d="m1.5625 0h3.28125v-5.984375h5.828125v5.984375h3.296875v-14.515625h-3.296875v5.9375h-5.828125v-5.9375h-3.28125zm0 0" transform="translate(321.5657 1045.4794)"/><use x="336.46591" xlink:href="#b" y="1045.4794"/><use x="352.42169" xlink:href="#d" y="1045.4794"/><use x="366.81439" xlink:href="#g" y="1045.4794"/><path d="m6.078125 0h12.71875v-20.546875h7.1875c12.890625 0 21.171875-5.6875 21.171875-17.609375v-.3125c0-11.9375-7.8125-18.015625-21.5625-18.015625h-19.515625zm12.71875-29.46875v-17.296875h6.484375c6.078125 0 9.5625 2.375 9.5625 8.375v.3125c0 5.609375-3.328125 8.609375-9.5625 8.609375zm0 0" transform="translate(106 490.84219)"/><use x="152.05701" xlink:href="#h" y="490.84219"/><use x="194.243" xlink:href="#i" y="490.84219"/><use x="224.737" xlink:href="#j" y="490.84219"/><use x="252.14999" xlink:href="#k" y="490.84219"/><use x="271.979" xlink:href="#l" y="490.84219"/><use x="315.271" xlink:href="#k" y="490.84219"/><use x="335.10001" xlink:href="#m" y="490.84219"/><use x="383.05301" xlink:href="#h" y="490.84219"/><use x="425.23901" xlink:href="#n" y="490.84219"/><use x="471.45401" xlink:href="#j" y="490.84219"/><use x="499.18301" xlink:href="#o" y="490.84219"/><use x="551.63898" xlink:href="#p" y="490.84219"/><use x="597.854" xlink:href="#q" y="490.84219"/><use x="641.85699" xlink:href="#i" y="490.84219"/><use x="671.08698" xlink:href="#q" y="490.84219"/><use x="730.258" xlink:href="#l" y="490.84219"/><use x="773.54999" xlink:href="#r" y="490.84219"/><use x="819.84399" xlink:href="#s" y="490.84219"/><use x="890.39099" xlink:href="#s" y="490.84219"/><use x="960.93799" xlink:href="#k" y="490.84219"/><use x="980.76703" xlink:href="#j" y="490.84219"/><use x="1023.348" xlink:href="#j" y="490.84219"/><use x="1050.761" xlink:href="#r" y="490.84219"/><use x="1112.223" xlink:href="#t" y="490.84219"/><use x="1158.201" xlink:href="#o" y="490.84219"/><use x="1195.647" xlink:href="#q" y="490.84219"/><use x="1254.818" xlink:href="#j" y="490.84219"/><use x="1282.231" xlink:href="#p" y="490.84219"/><use x="1328.446" xlink:href="#q" y="490.84219"/><use x="1387.6169" xlink:href="#k" y="490.84219"/><use x="1407.446" xlink:href="#n" y="490.84219"/><use x="1453.661" xlink:href="#u" y="490.84219"/><use x="1478.941" xlink:href="#r" y="490.84219"/><use x="1525.235" xlink:href="#i" y="490.84219"/><use x="1555.176" xlink:href="#s" y="490.84219"/><use x="1625.723" xlink:href="#h" y="490.84219"/><use x="1667.751" xlink:href="#j" y="490.84219"/><use x="1695.1639" xlink:href="#k" y="490.84219"/><use x="1714.993" xlink:href="#r" y="490.84219"/><use x="1761.287" xlink:href="#n" y="490.84219"/><use x="106" xlink:href="#v" y="595.84222"/><use x="153.953" xlink:href="#k" y="595.84222"/><use x="173.782" xlink:href="#o" y="595.84222"/><use x="211.228" xlink:href="#l" y="595.84222"/><use x="254.52" xlink:href="#t" y="595.84222"/><use x="300.49799" xlink:href="#o" y="595.84222"/><use x="337.944" xlink:href="#o" y="595.84222"/><use x="375.39001" xlink:href="#q" y="595.84222"/><use x="419.39301" xlink:href="#v" y="595.84222"/><use x="482.51401" xlink:href="#j" y="595.84222"/><use x="509.927" xlink:href="#r" y="595.84222"/><use x="556.22101" xlink:href="#v" y="595.84222"/><use x="604.17401" xlink:href="#h" y="595.84222"/><use x="645.01703" xlink:href="#w" y="595.84222"/><use x="702.60797" xlink:href="#u" y="595.84222"/><use x="727.888" xlink:href="#r" y="595.84222"/><use x="774.18201" xlink:href="#i" y="595.84222"/><use x="819.29102" xlink:href="#o" y="595.84222"/><use x="856.57898" xlink:href="#j" y="595.84222"/><use x="883.992" xlink:href="#t" y="595.84222"/><use x="929.96997" xlink:href="#v" y="595.84222"/><use x="977.92297" xlink:href="#w" y="595.84222"/><use x="1035.514" xlink:href="#h" y="595.84222"/><use x="1077.7" xlink:href="#n" y="595.84222"/><use x="1123.915" xlink:href="#v" y="595.84222"/><path d="m13.828125 0h11.375l7.578125-25.90625 7.03125 25.90625h11.21875l13.03125-41.3125h-10.96875l-7.828125 27.796875-7.265625-27.796875h-9.40625l-7.96875 27.796875-7.359375-27.796875h-12zm0 0" transform="translate(1187.036 595.84222)"/><use x="1249.92" xlink:href="#k" y="595.84222"/><use x="1269.749" xlink:href="#x" y="595.84222"/><use x="1289.499" xlink:href="#x" y="595.84222"/><use x="1324.417" xlink:href="#n" y="595.84222"/><use x="1370.632" xlink:href="#r" y="595.84222"/><use x="1416.926" xlink:href="#j" y="595.84222"/><use x="1459.507" xlink:href="#t" y="595.84222"/><use x="1505.485" xlink:href="#o" y="595.84222"/><use x="1542.931" xlink:href="#q" y="595.84222"/><use x="1602.1021" xlink:href="#k" y="595.84222"/><use x="1621.931" xlink:href="#j" y="595.84222"/><use x="1664.512" xlink:href="#j" y="595.84222"/><use x="1691.925" xlink:href="#r" y="595.84222"/><use x="106" xlink:href="#h" y="700.84222"/><use x="148.186" xlink:href="#l" y="700.84222"/><use x="191.478" xlink:href="#j" y="700.84222"/><use x="234.05901" xlink:href="#k" y="700.84222"/><use x="253.888" xlink:href="#n" y="700.84222"/><use x="315.271" xlink:href="#h" y="700.84222"/><use x="372.625" xlink:href="#s" y="700.84222"/><use x="443.172" xlink:href="#h" y="700.84222"/><use x="485.358" xlink:href="#x" y="700.84222"/><use x="505.108" xlink:href="#k" y="700.84222"/><use x="524.93701" xlink:href="#l" y="700.84222"/><use x="568.229" xlink:href="#k" y="700.84222"/><use x="588.05798" xlink:href="#r" y="700.84222"/><use x="634.35199" xlink:href="#t" y="700.84222"/><use x="680.33002" xlink:href="#o" y="700.84222"/><path d="m8.765625 9.71875 10.75-18.40625-10.75-4.03125-6.953125 19.515625zm0 0" transform="translate(717.61798 700.84222)"/><use x="753.95801" xlink:href="#u" y="700.84222"/><use x="780.89697" xlink:href="#i" y="700.84222"/><use x="810.12701" xlink:href="#h" y="700.84222"/><use x="852.31299" xlink:href="#t" y="700.84222"/><use x="898.29102" xlink:href="#v" y="700.84222"/><use x="946.24402" xlink:href="#t" y="700.84222"/><use x="992.22198" xlink:href="#x" y="700.84222"/><use x="1011.972" xlink:href="#q" y="700.84222"/><use x="1055.975" xlink:href="#n" y="700.84222"/><use x="1102.1899" xlink:href="#j" y="700.84222"/><use x="1144.771" xlink:href="#r" y="700.84222"/><use x="1191.0649" xlink:href="#i" y="700.84222"/><use x="1236.174" xlink:href="#m" y="700.84222"/><use x="1284.127" xlink:href="#k" y="700.84222"/><path d="m16.1875 0h12.890625l15-41.3125h-11.0625l-9.796875 29.546875-9.875-29.546875h-12.234375zm0 0" transform="translate(1303.9561 700.84222)"/><use x="1344.957" xlink:href="#r" y="700.84222"/><use x="1391.251" xlink:href="#j" y="700.84222"/><use x="1433.832" xlink:href="#j" y="700.84222"/><use x="1461.245" xlink:href="#r" y="700.84222"/><use x="106" xlink:href="#t" y="805.84222"/><use x="151.978" xlink:href="#n" y="805.84222"/><use x="198.19299" xlink:href="#h" y="805.84222"/><use x="240.379" xlink:href="#t" y="805.84222"/><use x="286.35699" xlink:href="#j" y="805.84222"/><use x="313.76999" xlink:href="#p" y="805.84222"/><use x="359.98499" xlink:href="#r" y="805.84222"/><use x="406.27899" xlink:href="#i" y="805.84222"/><use x="436.22" xlink:href="#k" y="805.84222"/><path d="m1.109375 0h36.171875v-8.84375h-19.75l20.546875-31.046875v-1.421875h-34.921875v8.84375h18.328125l-20.375 31.203125zm0 0" transform="translate(456.04901 805.84222)"/><use x="492.547" xlink:href="#q" y="805.84222"/><use x="536.54999" xlink:href="#v" y="805.84222"/><use x="599.67102" xlink:href="#h" y="805.84222"/><use x="641.85699" xlink:href="#l" y="805.84222"/><use x="685.14899" xlink:href="#l" y="805.84222"/><use x="728.44098" xlink:href="#q" y="805.84222"/><use x="772.83899" xlink:href="#o" y="805.84222"/><use x="810.28497" xlink:href="#o" y="805.84222"/><path d="m11.53125.71875c4.03125 0 7.109375-3.09375 7.109375-6.953125 0-3.796875-3.078125-6.875-7.109375-6.875-3.953125 0-7.03125 3.078125-7.03125 6.875 0 3.859375 3.078125 6.953125 7.03125 6.953125zm0 0" transform="translate(847.573 805.84222)"/><use x="106" xlink:href="#y" y="233.22391"/><use x="167.101" xlink:href="#z" y="233.22391"/><use x="220.576" xlink:href="#A" y="233.22391"/><use x="277.02701" xlink:href="#z" y="233.22391"/><use x="330.22299" xlink:href="#B" y="233.22391"/><use x="395.974" xlink:href="#y" y="233.22391"/><use x="456.14499" xlink:href="#C" y="233.22391"/><path d="m6.421875 0h19.15625v-26.21875h21.859375v26.21875h19.0625v-66.5h-19.0625v25.390625h-21.859375v-25.390625h-19.15625zm0 0" transform="translate(523.01202 233.22391)"/><use x="606.80499" xlink:href="#D" y="233.22391"/><path d="m35.4375 1.109375c18.3125 0 29.65625-9.015625 29.65625-28.359375v-39.25h-19.25v38.40625c0 9.953125-2.5 14.234375-10.40625 14.234375-8.09375 0-10.421875-4.546875-10.421875-13.953125v-38.6875h-19.0625v39.53125c0 18.59375 10.6875 28.078125 29.484375 28.078125zm0 0" transform="translate(663.72101 233.22391)"/><use x="731.05298" xlink:href="#y" y="233.22391"/><use x="792.15399" xlink:href="#D" y="233.22391"/><use x="849.72101" xlink:href="#E" y="233.22391"/><use x="921.23798" xlink:href="#A" y="233.22391"/><use x="977.68903" xlink:href="#z" y="233.22391"/><use x="1031.1639" xlink:href="#A" y="233.22391"/><path d="m11.34375 11.34375 13.390625-22.78125-15.4375-5.484375-7.8125 24.453125zm0 0" transform="translate(1086.0341 233.22391)"/><use x="106" xlink:href="#B" y="331.80991"/><use x="171.75101" xlink:href="#F" y="331.80991"/><use x="240.29201" xlink:href="#G" y="331.80991"/><use x="294.04599" xlink:href="#H" y="331.80991"/><path d="m4.75-20.28125h26.03125v-12.546875h-26.03125zm0 0" transform="translate(323.06201 331.80991)"/><use x="354.86801" xlink:href="#I" y="331.80991"/><use x="438.754" xlink:href="#B" y="331.80991"/><path d="m6.421875 0h44.265625v-14.78125h-25.109375v-51.71875h-19.15625zm0 0" transform="translate(504.505 331.80991)"/><use x="554.26001" xlink:href="#H" y="331.80991"/><use x="583.276" xlink:href="#C" y="331.80991"/><use x="650.14301" xlink:href="#z" y="331.80991"/><use x="717.94" xlink:href="#C" y="331.80991"/><use x="784.80701" xlink:href="#E" y="331.80991"/><use x="857.25403" xlink:href="#I" y="331.80991"/><use x="941.14001" xlink:href="#I" y="331.80991"/><use x="1025.026" xlink:href="#H" y="331.80991"/><use x="1054.042" xlink:href="#G" y="331.80991"/><use x="1107.796" xlink:href="#I" y="331.80991"/><use x="1191.682" xlink:href="#z" y="331.80991"/><use x="1244.8781" xlink:href="#F" y="331.80991"/><use x="1313.4189" xlink:href="#G" y="331.80991"/></svg>