<svg height="1000" viewBox="0 0 264.58333 264.58333" width="1000" xmlns="http://www.w3.org/2000/svg"><path d="m0 0h264.58334v264.58334h-264.58334z" fill="#341334" stroke-width=".254663"/><g fill="#f22f54" stroke-width=".42955"><path d="m260.88172 109.02387c-3.25101 0-4.69829-1.01516-6.69642-2.42991-2.28976-1.60914-5.13033-3.61786-10.44429-3.61786-5.31392 0-8.15453 2.00872-10.43346 3.61786-1.99814 1.41475-3.44542 2.42991-6.69642 2.42991s-4.69829-1.01516-6.69642-2.42991c-2.28976-1.60914-5.13033-3.61786-10.44429-3.61786-5.31391 0-8.15452 2.00872-10.43346 3.61786-1.99813 1.41475-3.44541 2.42991-6.69642 2.42991-3.251 0-4.69833-1.01516-6.69642-2.42991-2.30058-1.60914-5.14115-3.61786-10.44428-3.61786-5.31396 0-8.15453 2.00872-10.43346 3.61786-1.99814 1.41475-3.44542 2.42991-6.69647 2.42991-3.251 0-4.69828-1.01516-6.69642-2.42991-2.30054-1.60914-5.14111-3.61786-10.45507-3.61786-5.31391 0-8.15448 2.00872-10.43346 3.61786-1.99813 1.41475-3.44541 2.42991-6.69642 2.42991-3.251 0-4.69828-1.01516-6.69642-2.42991-2.28976-1.60914-5.13037-3.61786-10.44428-3.61786-5.31396 0-8.15453 2.00872-10.433463 3.61786-1.998136 1.41475-3.445417 2.42991-6.696421 2.42991-3.251046 0-4.698328-1.01516-6.696464-2.42991-2.289714-1.60914-5.141108-3.61786-10.444242-3.61786s-8.154527 2.00872-10.444284 3.61786c-1.998136 1.41475-3.445418 2.42991-6.696421 2.42991-3.251004 0-4.698329-1.01516-6.696422-2.42991-2.289757-1.60914-5.130326-3.61786-10.444284-3.61786-5.313959 0-8.154528 2.00872-10.43346 3.61786-1.998136 1.41475-3.445418 2.42991-6.696465 2.42991-3.251003 0-4.698285-1.01516-6.696421-2.42991-2.289714-1.60914-5.1303258-3.61786-10.4442415-3.61786-1.7929402 0-3.24022176 1.44715-3.24022176 3.23988s1.44728156 3.23988 3.24022176 3.23988c3.2510035 0 4.6982851 1.01516 6.6964215 2.4299 2.278932 1.60914 5.119501 3.61787 10.43346 3.61787 5.313958 0 8.154527-2.00873 10.43346-3.61787 1.998136-1.41474 3.445418-2.4299 6.696464-2.4299 3.251003 0 4.698285 1.01516 6.696421 2.4299 2.300539 1.60914 5.141108 3.61787 10.455067 3.61787 5.313915 0 8.154527-2.00873 10.43346-3.61787 1.998136-1.41474 3.445417-2.4299 6.696421-2.4299 3.251003 0 4.698328 1.01516 6.696421 2.4299 2.278976 1.60914 5.119544 3.61787 10.433503 3.61787 5.313916 0 8.154527-2.00873 10.43346-3.61787 2.01974-1.41474 3.4562-2.4299 6.71803-2.4299 3.251 0 4.69828 1.01516 6.69642 2.4299 2.27893 1.60914 5.11954 3.61787 10.43346 3.61787 5.31396 0 8.15453-2.00873 10.4335-3.61787 1.99809-1.41474 3.44542-2.4299 6.69642-2.4299 3.25101 0 4.69829 1.01516 6.69642 2.4299 2.27894 1.60914 5.11955 3.61787 10.43346 3.61787 5.31392 0 8.15453-2.00873 10.43346-3.61787 1.99814-1.41474 3.44542-2.4299 6.69643-2.4299 3.251 0 4.69832 1.01516 6.69642 2.4299 2.27897 1.60914 5.11954 3.61787 10.4335 3.61787 5.31392 0 8.15453-2.00873 10.43346-3.61787 1.99814-1.41474 3.44542-2.4299 6.69642-2.4299s4.69829 1.01516 6.69642 2.4299c2.27893 1.60914 5.11955 3.61787 10.4335 3.61787 5.31392 0 8.15453-2.00873 10.43347-3.61787 1.99813-1.41474 3.44541-2.4299 6.69642-2.4299 3.25104 0 4.69832 1.01516 6.69642 2.4299 2.27897 1.60914 5.11954 3.61787 10.4335 3.61787 1.7929 0 3.24018-1.44715 3.24018-3.23988s-1.38246-3.23988-3.17536-3.23988z"/><path d="m261.4083 131.66613c-3.251 0-4.69828-1.01516-6.69642-2.42991-2.28976-1.60914-5.13033-3.61786-10.44428-3.61786-5.31392 0-8.15453 2.00872-10.43346 3.61786-1.99814 1.41475-3.44542 2.42991-6.69643 2.42991-3.251 0-4.69828-1.01516-6.69642-2.42991-2.28975-1.60914-5.13032-3.61786-10.44428-3.61786-5.31392 0-8.15453 2.00872-10.43346 3.61786-1.99814 1.41475-3.44542 2.42991-6.69642 2.42991-3.25101 0-4.69833-1.01516-6.69642-2.42991-2.30059-1.60914-5.14115-3.61786-10.44429-3.61786-5.31396 0-8.15453 2.00872-10.43346 3.61786-1.99813 1.41475-3.44542 2.42991-6.69646 2.42991-3.25101 0-4.69829-1.01516-6.69642-2.42991-2.30054-1.60914-5.14111-3.61786-10.45507-3.61786-5.31392 0-8.15448 2.00872-10.43346 3.61786-1.99814 1.41475-3.44542 2.42991-6.69642 2.42991-3.25101 0-4.69829-1.01516-6.69642-2.42991-2.28976-1.60914-5.13037-3.61786-10.44429-3.61786-5.31396 0-8.154525 2.00872-10.433458 3.61786-1.998136 1.41475-3.445417 2.42991-6.696421 2.42991-3.251046 0-4.698328-1.01516-6.696464-2.42991-2.289714-1.60914-5.141108-3.61786-10.444242-3.61786s-8.154527 2.00872-10.444284 3.61786c-1.998136 1.41475-3.445418 2.42991-6.696422 2.42991-3.251003 0-4.698328-1.01516-6.696421-2.42991-2.289757-1.60914-5.130326-3.61786-10.444284-3.61786-5.313959 0-8.154528 2.00872-10.433461 3.61786-1.998136 1.41475-3.445417 2.42991-6.696464 2.42991-3.251003 0-4.698285-1.01516-6.696421-2.42991-2.289714-1.60914-5.1303259-3.61786-10.4442416-3.61786-1.7929402 0-3.2402218 1.44714-3.2402218 3.23987 0 1.79274 1.4472816 3.23988 3.2402218 3.23988 3.2510035 0 4.6982851 1.01517 6.6964216 2.42991 2.278932 1.60914 5.119501 3.61786 10.43346 3.61786 5.313958 0 8.154527-2.00872 10.43346-3.61786 1.998136-1.41474 3.445417-2.42991 6.696464-2.42991 3.251003 0 4.698285 1.01517 6.696421 2.42991 2.300539 1.60914 5.141108 3.61786 10.455066 3.61786 5.313916 0 8.154528-2.00872 10.433461-3.61786 1.998136-1.41474 3.445417-2.42991 6.696421-2.42991 3.251003 0 4.698328 1.01517 6.696421 2.42991 2.278975 1.60914 5.119544 3.61786 10.433503 3.61786 5.313915 0 8.154527-2.00872 10.433455-3.61786 2.01975-1.41474 3.4562-2.42991 6.71803-2.42991 3.25101 0 4.69829 1.01517 6.69642 2.42991 2.27894 1.60914 5.11955 3.61786 10.43346 3.61786 5.31396 0 8.15453-2.00872 10.43351-3.61786 1.99809-1.41474 3.44541-2.42991 6.69642-2.42991 3.251 0 4.69828 1.01517 6.69642 2.42991 2.27893 1.60914 5.11954 3.61786 10.43346 3.61786 5.31391 0 8.15453-2.00872 10.43346-3.61786 1.99814-1.41474 3.44542-2.42991 6.69642-2.42991s4.69833 1.01517 6.69642 2.42991c2.27898 1.60914 5.11955 3.61786 10.4335 3.61786 5.31392 0 8.15453-2.00872 10.43346-3.61786 1.99814-1.41474 3.44542-2.42991 6.69643-2.42991 3.251 0 4.69828 1.01517 6.69642 2.42991 2.27893 1.60914 5.11954 3.61786 10.4335 3.61786 5.31392 0 8.15453-2.00872 10.43346-3.61786 1.99814-1.41474 3.44542-2.42991 6.69642-2.42991 3.25105 0 4.69833 1.01517 6.69642 2.42991 2.27898 1.60914 5.11955 3.61786 10.43351 3.61786 1.79289 0 3.24017-1.44714 3.24017-3.23987s-1.38246-3.23988-3.17536-3.23988z"/><path d="m260.29667 155.12748c-3.251 0-4.69829-1.01516-6.69642-2.42991-2.28976-1.60914-5.13033-3.61786-10.44429-3.61786-5.31391 0-8.15452 2.00872-10.43346 3.61786-1.99813 1.41475-3.44541 2.42991-6.69642 2.42991-3.251 0-4.69828-1.01516-6.69642-2.42991-2.28976-1.60914-5.13032-3.61786-10.44428-3.61786-5.31392 0-8.15453 2.00872-10.43346 3.61786-1.99814 1.41475-3.44542 2.42991-6.69642 2.42991-3.25101 0-4.69833-1.01516-6.69643-2.42991-2.30058-1.60914-5.14115-3.61786-10.44428-3.61786-5.31396 0-8.15453 2.00872-10.43346 3.61786-1.99814 1.41475-3.44542 2.42991-6.69646 2.42991-3.25101 0-4.69829-1.01516-6.69643-2.42991-2.30053-1.60914-5.1411-3.61786-10.45506-3.61786-5.31392 0-8.15449 2.00872-10.43346 3.61786-1.99814 1.41475-3.44542 2.42991-6.69642 2.42991-3.25101 0-4.69829-1.01516-6.69642-2.42991-2.28976-1.60914-5.13037-3.61786-10.44429-3.61786-5.31396 0-8.154527 2.00872-10.433459 3.61786-1.998136 1.41475-3.445418 2.42991-6.696421 2.42991-3.251047 0-4.698328-1.01516-6.696464-2.42991-2.289715-1.60914-5.141108-3.61786-10.444242-3.61786s-8.154528 2.00872-10.444285 3.61786c-1.998136 1.41475-3.445418 2.42991-6.696421 2.42991-3.251004 0-4.698328-1.01516-6.696421-2.42991-2.289758-1.60914-5.130326-3.61786-10.444285-3.61786s-8.154527 2.00872-10.43346 3.61786c-1.998136 1.41475-3.445418 2.42991-6.696464 2.42991-3.251004 0-4.698285-1.01516-6.696421-2.42991-2.289715-1.60914-5.1303264-3.61786-10.4442421-3.61786-1.7929402 0-3.24022177 1.44714-3.24022177 3.23988 0 1.79273 1.44728157 3.23988 3.24022177 3.23988 3.2510035 0 4.6982851 1.01516 6.6964212 2.42991 2.2789329 1.60914 5.1195019 3.61786 10.4334599 3.61786 5.313959 0 8.154528-2.00872 10.43346-3.61786 1.998136-1.41475 3.445418-2.42991 6.696464-2.42991 3.251004 0 4.698285 1.01516 6.696421 2.42991 2.30054 1.60914 5.141108 3.61786 10.455067 3.61786 5.313916 0 8.154527-2.00872 10.43346-3.61786 1.998136-1.41475 3.445418-2.42991 6.696421-2.42991 3.251004 0 4.698328 1.01516 6.696421 2.42991 2.278976 1.60914 5.119545 3.61786 10.433503 3.61786 5.313916 0 8.154528-2.00872 10.43346-3.61786 2.019747-1.41475 3.456197-2.42991 6.718027-2.42991 3.251 0 4.69829 1.01516 6.69642 2.42991 2.27893 1.60914 5.11955 3.61786 10.43346 3.61786 5.31396 0 8.15453-2.00872 10.43351-3.61786 1.99809-1.41475 3.44541-2.42991 6.69642-2.42991 3.251 0 4.69828 1.01516 6.69642 2.42991 2.27893 1.60914 5.11954 3.61786 10.43346 3.61786 5.31391 0 8.15452-2.00872 10.43346-3.61786 1.99813-1.41475 3.44542-2.42991 6.69642-2.42991s4.69833 1.01516 6.69642 2.42991c2.27898 1.60914 5.11954 3.61786 10.4335 3.61786 5.31392 0 8.15453-2.00872 10.43346-3.61786 1.99814-1.41475 3.44542-2.42991 6.69642-2.42991 3.25101 0 4.69829 1.01516 6.69643 2.42991 2.27893 1.60914 5.11954 3.61786 10.4335 3.61786 5.31391 0 8.15453-2.00872 10.43346-3.61786 1.99813-1.41475 3.44542-2.42991 6.69642-2.42991 3.25105 0 4.69833 1.01516 6.69642 2.42991 2.27898 1.60914 5.11955 3.61786 10.4335 3.61786 1.7929 0 3.24018-1.44715 3.24018-3.23988s-1.38246-3.23988-3.17536-3.23988z"/></g></svg>