<?xml version="1.0" encoding="UTF-8" standalone="no"?>
<!-- Created with Inkscape (http://www.inkscape.org/) -->

<svg
   width="139.21463mm"
   height="30.849636mm"
   viewBox="0 0 139.21463 30.849636"
   version="1.1"
   id="svg547"
   inkscape:version="1.2.2 (b0a84865, 2022-12-01)"
   sodipodi:docname="CSH squiggles ping.svg"
   xmlns:inkscape="http://www.inkscape.org/namespaces/inkscape"
   xmlns:sodipodi="http://sodipodi.sourceforge.net/DTD/sodipodi-0.dtd"
   xmlns="http://www.w3.org/2000/svg"
   xmlns:svg="http://www.w3.org/2000/svg">
  <sodipodi:namedview
     id="namedview549"
     pagecolor="#ffffff"
     bordercolor="#000000"
     borderopacity="0.25"
     inkscape:showpageshadow="2"
     inkscape:pageopacity="0.0"
     inkscape:pagecheckerboard="0"
     inkscape:deskcolor="#d1d1d1"
     inkscape:document-units="mm"
     showgrid="false"
     inkscape:zoom="0.2102413"
     inkscape:cx="-135.55852"
     inkscape:cy="57.077272"
     inkscape:window-width="1309"
     inkscape:window-height="430"
     inkscape:window-x="0"
     inkscape:window-y="38"
     inkscape:window-maximized="0"
     inkscape:current-layer="layer1" />
  <defs
     id="defs544" />
  <g
     inkscape:label="Layer 1"
     inkscape:groupmode="layer"
     id="layer1"
     transform="translate(-34.216844,-133.07518)">
    <path
       d="m 171.48361,136.2573 c -1.71057,0 -2.47208,-0.53414 -3.52342,-1.27853 -1.20479,-0.84667 -2.6994,-1.90359 -5.49542,-1.90359 -2.79599,0 -4.29062,1.05692 -5.48972,1.90359 -1.05135,0.74439 -1.81285,1.27853 -3.52342,1.27853 -1.71056,0 -2.47207,-0.53414 -3.52342,-1.27853 -1.20479,-0.84667 -2.6994,-1.90359 -5.49541,-1.90359 -2.796,0 -4.29063,1.05692 -5.48972,1.90359 -1.05135,0.74439 -1.81286,1.27853 -3.52342,1.27853 -1.71057,0 -2.4721,-0.53414 -3.52342,-1.27853 -1.21049,-0.84667 -2.70509,-1.90359 -5.49542,-1.90359 -2.79601,0 -4.29062,1.05692 -5.48972,1.90359 -1.05134,0.74439 -1.81285,1.27853 -3.52344,1.27853 -1.71056,0 -2.47207,-0.53414 -3.52342,-1.27853 -1.21046,-0.84667 -2.70507,-1.90359 -5.50109,-1.90359 -2.79599,0 -4.2906,1.05692 -5.48972,1.90359 -1.05134,0.74439 -1.81285,1.27853 -3.523416,1.27853 -1.710563,0 -2.472072,-0.53414 -3.523421,-1.27853 -1.204789,-0.84667 -2.699419,-1.90359 -5.495414,-1.90359 -2.796017,0 -4.290624,1.05692 -5.489718,1.90359 -1.051349,0.74439 -1.812858,1.27853 -3.523421,1.27853 -1.710586,0 -2.472095,-0.53414 -3.523443,-1.27853 -1.204767,-0.84667 -2.70507,-1.90359 -5.495392,-1.90359 -2.790322,0 -4.290625,1.05692 -5.495414,1.90359 -1.051349,0.74439 -1.812857,1.27853 -3.523421,1.27853 -1.710563,0 -2.472094,-0.53414 -3.52342,-1.27853 -1.20479,-0.84667 -2.699397,-1.90359 -5.495415,-1.90359 -2.796017,0 -4.290624,1.05692 -5.489718,1.90359 -1.051349,0.74439 -1.812858,1.27853 -3.523444,1.27853 -1.710563,0 -2.472072,-0.53414 -3.52342,-1.27853 -1.204767,-0.84667 -2.699397,-1.90359 -5.495392,-1.90359 -0.943382,0 -1.70489,0.76143 -1.70489,1.70471 0,0.94327 0.761508,1.70471 1.70489,1.70471 1.710563,0 2.472072,0.53414 3.523421,1.27853 1.199094,0.84667 2.693701,1.90359 5.489718,1.90359 2.796018,0 4.290625,-1.05692 5.489719,-1.90359 1.051349,-0.74439 1.812857,-1.27853 3.523443,-1.27853 1.710564,0 2.472072,0.53414 3.523421,1.27853 1.210462,0.84667 2.70507,1.90359 5.501087,1.90359 2.795995,0 4.290625,-1.05692 5.489719,-1.90359 1.051349,-0.74439 1.812857,-1.27853 3.52342,-1.27853 1.710564,0 2.472095,0.53414 3.523421,1.27853 1.199117,0.84667 2.693724,1.90359 5.489741,1.90359 2.795995,0 4.290625,-1.05692 5.489719,-1.90359 1.062717,-0.74439 1.81853,-1.27853 3.534789,-1.27853 1.710564,0 2.472072,0.53414 3.523421,1.27853 1.199094,0.84667 2.693724,1.90359 5.489719,1.90359 2.796021,0 4.290621,-1.05692 5.489741,-1.90359 1.05133,-0.74439 1.81286,-1.27853 3.52342,-1.27853 1.71056,0 2.47207,0.53414 3.52342,1.27853 1.1991,0.84667 2.69372,1.90359 5.48972,1.90359 2.79599,0 4.29062,-1.05692 5.48972,-1.90359 1.05135,-0.74439 1.81286,-1.27853 3.52342,-1.27853 1.71056,0 2.47209,0.53414 3.52342,1.27853 1.19912,0.84667 2.69372,1.90359 5.48974,1.90359 2.796,0 4.29063,-1.05692 5.48972,-1.90359 1.05135,-0.74439 1.81286,-1.27853 3.52342,-1.27853 1.71056,0 2.47207,0.53414 3.52342,1.27853 1.19909,0.84667 2.69372,1.90359 5.48974,1.90359 2.796,0 4.29063,-1.05692 5.48972,-1.90359 1.05135,-0.74439 1.81286,-1.27853 3.52342,-1.27853 1.71059,0 2.4721,0.53414 3.52342,1.27853 1.19912,0.84667 2.69373,1.90359 5.48974,1.90359 0.94336,0 1.70487,-0.76144 1.70487,-1.70471 0,-0.94327 -0.7274,-1.70471 -1.67076,-1.70471 z"
       style="fill:#f22f54;fill-opacity:1;fill-rule:nonzero;stroke:none;stroke-width:0.0568264"
       id="path1171" />
    <path
       d="m 171.76068,148.17086 c -1.71057,0 -2.47208,-0.53414 -3.52342,-1.27853 -1.20479,-0.84668 -2.6994,-1.9036 -5.49542,-1.9036 -2.79599,0 -4.29062,1.05692 -5.48972,1.9036 -1.05135,0.74439 -1.81285,1.27853 -3.52342,1.27853 -1.71056,0 -2.47207,-0.53414 -3.52342,-1.27853 -1.20479,-0.84668 -2.69939,-1.9036 -5.49541,-1.9036 -2.796,0 -4.29063,1.05692 -5.48972,1.9036 -1.05135,0.74439 -1.81286,1.27853 -3.52342,1.27853 -1.71056,0 -2.4721,-0.53414 -3.52342,-1.27853 -1.21049,-0.84668 -2.70509,-1.9036 -5.49542,-1.9036 -2.79601,0 -4.29062,1.05692 -5.48972,1.9036 -1.05134,0.74439 -1.81285,1.27853 -3.52344,1.27853 -1.71056,0 -2.47207,-0.53414 -3.52342,-1.27853 -1.21046,-0.84668 -2.70507,-1.9036 -5.50109,-1.9036 -2.79599,0 -4.2906,1.05692 -5.48971,1.9036 -1.05135,0.74439 -1.81286,1.27853 -3.523426,1.27853 -1.710563,0 -2.472071,-0.53414 -3.52342,-1.27853 -1.20479,-0.84668 -2.699419,-1.9036 -5.495414,-1.9036 -2.796018,0 -4.290625,1.05692 -5.489719,1.9036 -1.051349,0.74439 -1.812857,1.27853 -3.523421,1.27853 -1.710586,0 -2.472094,-0.53414 -3.523443,-1.27853 -1.204767,-0.84668 -2.70507,-1.9036 -5.495392,-1.9036 -2.790322,0 -4.290624,1.05692 -5.495414,1.9036 -1.051349,0.74439 -1.812857,1.27853 -3.52342,1.27853 -1.710564,0 -2.472095,-0.53414 -3.523421,-1.27853 -1.20479,-0.84668 -2.699397,-1.9036 -5.495414,-1.9036 -2.796018,0 -4.290625,1.05692 -5.489719,1.9036 -1.051349,0.74439 -1.812857,1.27853 -3.523443,1.27853 -1.710564,0 -2.472072,-0.53414 -3.523421,-1.27853 -1.204767,-0.84668 -2.699397,-1.9036 -5.495391,-1.9036 -0.943382,0 -1.704891,0.76144 -1.704891,1.70471 0,0.94328 0.761509,1.70471 1.704891,1.70471 1.710563,0 2.472071,0.53415 3.52342,1.27854 1.199094,0.84667 2.693701,1.90359 5.489719,1.90359 2.796017,0 4.290625,-1.05692 5.489719,-1.90359 1.051348,-0.74439 1.812857,-1.27854 3.523443,-1.27854 1.710563,0 2.472072,0.53415 3.52342,1.27854 1.210463,0.84667 2.70507,1.90359 5.501088,1.90359 2.795995,0 4.290624,-1.05692 5.489718,-1.90359 1.051349,-0.74439 1.812858,-1.27854 3.523421,-1.27854 1.710563,0 2.472094,0.53415 3.523421,1.27854 1.199116,0.84667 2.693723,1.90359 5.489741,1.90359 2.795995,0 4.290625,-1.05692 5.489718,-1.90359 1.062718,-0.74439 1.818531,-1.27854 3.53479,-1.27854 1.710563,0 2.472072,0.53415 3.52342,1.27854 1.199094,0.84667 2.693724,1.90359 5.489719,1.90359 2.796021,0 4.290621,-1.05692 5.489741,-1.90359 1.05133,-0.74439 1.81286,-1.27854 3.52342,-1.27854 1.71056,0 2.47207,0.53415 3.52342,1.27854 1.1991,0.84667 2.69373,1.90359 5.48972,1.90359 2.796,0 4.29062,-1.05692 5.48972,-1.90359 1.05135,-0.74439 1.81286,-1.27854 3.52342,-1.27854 1.71056,0 2.47209,0.53415 3.52342,1.27854 1.19912,0.84667 2.69372,1.90359 5.48974,1.90359 2.796,0 4.29063,-1.05692 5.48972,-1.90359 1.05135,-0.74439 1.81286,-1.27854 3.52342,-1.27854 1.71056,0 2.47207,0.53415 3.52342,1.27854 1.1991,0.84667 2.69373,1.90359 5.48974,1.90359 2.796,0 4.29063,-1.05692 5.48972,-1.90359 1.05135,-0.74439 1.81286,-1.27854 3.52342,-1.27854 1.71059,0 2.4721,0.53415 3.52342,1.27854 1.19912,0.84667 2.69373,1.90359 5.48974,1.90359 0.94336,0 1.70487,-0.76144 1.70487,-1.70471 0,-0.94327 -0.7274,-1.70471 -1.67076,-1.70471 z"
       style="fill:#f22f54;fill-opacity:1;fill-rule:nonzero;stroke:none;stroke-width:0.0568264"
       id="path1175" />
    <path
       d="m 171.17578,160.51539 c -1.71057,0 -2.47208,-0.53414 -3.52343,-1.27853 -1.20478,-0.84667 -2.69939,-1.90359 -5.49541,-1.90359 -2.79599,0 -4.29062,1.05692 -5.48972,1.90359 -1.05135,0.74439 -1.81286,1.27853 -3.52342,1.27853 -1.71056,0 -2.47207,-0.53414 -3.52342,-1.27853 -1.20479,-0.84667 -2.6994,-1.90359 -5.49541,-1.90359 -2.796,0 -4.29063,1.05692 -5.48972,1.90359 -1.05135,0.74439 -1.81286,1.27853 -3.52342,1.27853 -1.71057,0 -2.4721,-0.53414 -3.52342,-1.27853 -1.21049,-0.84667 -2.7051,-1.90359 -5.49542,-1.90359 -2.79602,0 -4.29062,1.05692 -5.48972,1.90359 -1.05135,0.74439 -1.81285,1.27853 -3.52344,1.27853 -1.71056,0 -2.47207,-0.53414 -3.52342,-1.27853 -1.21046,-0.84667 -2.70507,-1.90359 -5.50109,-1.90359 -2.79599,0 -4.2906,1.05692 -5.48972,1.90359 -1.05134,0.74439 -1.81285,1.27853 -3.523417,1.27853 -1.710563,0 -2.472072,-0.53414 -3.52342,-1.27853 -1.20479,-0.84667 -2.69942,-1.90359 -5.495415,-1.90359 -2.796017,0 -4.290624,1.05692 -5.489718,1.90359 -1.051349,0.74439 -1.812858,1.27853 -3.523421,1.27853 -1.710586,0 -2.472095,-0.53414 -3.523443,-1.27853 -1.204767,-0.84667 -2.70507,-1.90359 -5.495392,-1.90359 -2.790322,0 -4.290625,1.05692 -5.495414,1.90359 -1.051349,0.74439 -1.812857,1.27853 -3.523421,1.27853 -1.710563,0 -2.472094,-0.53414 -3.52342,-1.27853 -1.20479,-0.84667 -2.699397,-1.90359 -5.495415,-1.90359 -2.796017,0 -4.290624,1.05692 -5.489718,1.90359 -1.051349,0.74439 -1.812858,1.27853 -3.523444,1.27853 -1.710563,0 -2.472071,-0.53414 -3.52342,-1.27853 -1.204767,-0.84667 -2.699397,-1.90359 -5.495392,-1.90359 -0.943382,0 -1.70489,0.76144 -1.70489,1.70471 0,0.94327 0.761508,1.70471 1.70489,1.70471 1.710564,0 2.472072,0.53414 3.523421,1.27853 1.199094,0.84668 2.693701,1.90359 5.489719,1.90359 2.796017,0 4.290624,-1.05691 5.489718,-1.90359 1.051349,-0.74439 1.812857,-1.27853 3.523443,-1.27853 1.710564,0 2.472072,0.53414 3.523421,1.27853 1.210463,0.84668 2.70507,1.90359 5.501087,1.90359 2.795995,0 4.290625,-1.05691 5.489719,-1.90359 1.051349,-0.74439 1.812857,-1.27853 3.523421,-1.27853 1.710563,0 2.472094,0.53414 3.52342,1.27853 1.199117,0.84668 2.693724,1.90359 5.489742,1.90359 2.795994,0 4.290624,-1.05691 5.489718,-1.90359 1.062717,-0.74439 1.81853,-1.27853 3.534789,-1.27853 1.710564,0 2.472072,0.53414 3.523421,1.27853 1.199094,0.84668 2.693724,1.90359 5.489719,1.90359 2.796022,0 4.290622,-1.05691 5.489742,-1.90359 1.05133,-0.74439 1.81286,-1.27853 3.52342,-1.27853 1.71056,0 2.47207,0.53414 3.52342,1.27853 1.19909,0.84668 2.69372,1.90359 5.48972,1.90359 2.79599,0 4.29062,-1.05691 5.48972,-1.90359 1.05135,-0.74439 1.81285,-1.27853 3.52342,-1.27853 1.71056,0 2.47209,0.53414 3.52342,1.27853 1.19912,0.84668 2.69372,1.90359 5.48974,1.90359 2.796,0 4.29062,-1.05691 5.48972,-1.90359 1.05135,-0.74439 1.81286,-1.27853 3.52342,-1.27853 1.71056,0 2.47207,0.53414 3.52342,1.27853 1.19909,0.84668 2.69372,1.90359 5.48974,1.90359 2.796,0 4.29063,-1.05691 5.48972,-1.90359 1.05135,-0.74439 1.81286,-1.27853 3.52342,-1.27853 1.71059,0 2.4721,0.53414 3.52342,1.27853 1.19912,0.84668 2.69372,1.90359 5.48974,1.90359 0.94336,0 1.70487,-0.76143 1.70487,-1.70471 0,-0.94327 -0.7274,-1.70471 -1.67076,-1.70471 z"
       style="fill:#f22f54;fill-opacity:1;fill-rule:nonzero;stroke:none;stroke-width:0.0568264"
       id="path1179" />
  </g>
</svg>
