<?xml version="1.0" encoding="UTF-8" standalone="no"?>
<svg
   version="1.1"
   id="svg833"
   xml:space="preserve"
   width="1000"
   height="1000"
   viewBox="0 0 1000 1000"
   sodipodi:docname="2023-05-16 CSH your first smart contract workshop flyer copy.svg"
   inkscape:version="1.2.2 (b0a84865, 2022-12-01)"
   inkscape:export-filename="../../../Desktop/workshop.png"
   inkscape:export-xdpi="300"
   inkscape:export-ydpi="300"
   xmlns:inkscape="http://www.inkscape.org/namespaces/inkscape"
   xmlns:sodipodi="http://sodipodi.sourceforge.net/DTD/sodipodi-0.dtd"
   xmlns:xlink="http://www.w3.org/1999/xlink"
   xmlns="http://www.w3.org/2000/svg"
   xmlns:svg="http://www.w3.org/2000/svg"
   xmlns:rdf="http://www.w3.org/1999/02/22-rdf-syntax-ns#"
   xmlns:cc="http://creativecommons.org/ns#"
   xmlns:dc="http://purl.org/dc/elements/1.1/"><metadata
     id="metadata839"><rdf:RDF><cc:Work
         rdf:about=""><dc:format>image/svg+xml</dc:format><dc:type
           rdf:resource="http://purl.org/dc/dcmitype/StillImage" /></cc:Work></rdf:RDF></metadata><defs
     id="defs837"><linearGradient
       id="Purple"
       inkscape:swatch="solid"><stop
         style="stop-color:#341334;stop-opacity:1;"
         offset="0"
         id="stop1472" /></linearGradient><linearGradient
       id="Pink"
       inkscape:swatch="solid"><stop
         style="stop-color:#f22f54;stop-opacity:1;"
         offset="0"
         id="stop1466" /></linearGradient><linearGradient
       id="White"
       inkscape:swatch="solid"><stop
         style="stop-color:#ffffff;stop-opacity:1;"
         offset="0"
         id="stop1460" /></linearGradient><rect
       x="1796.3857"
       y="1673.0422"
       width="683.13257"
       height="322.59039"
       id="rect1856" /><clipPath
       clipPathUnits="userSpaceOnUse"
       id="clipPath899"><path
         d="M 589.10413,301.0957 H 1629.7291 v 900 H 589.10413 Z"
         id="path897" /></clipPath><clipPath
       clipPathUnits="userSpaceOnUse"
       id="clipPath905"><path
         d="M 589.10413,301.72803 H 1629.7291 V 1201.728 H 589.10413 Z"
         id="path903" /></clipPath><clipPath
       clipPathUnits="userSpaceOnUse"
       id="clipPath989"><path
         d="M 88,182 H 360 V 433 H 88 Z"
         id="path987" /></clipPath><radialGradient
       fx="540.38617"
       fy="350.2478"
       cx="540.38617"
       cy="350.2478"
       r="325"
       gradientUnits="userSpaceOnUse"
       gradientTransform="matrix(0.57911849,0,0,-0.57911849,-79.409622,510.24698)"
       spreadMethod="pad"
       id="radialGradient995"><stop
         style="stop-opacity:0;stop-color:#ffffff"
         offset="0"
         id="stop991" /><stop
         style="stop-opacity:0.34900435;stop-color:#ffffff"
         offset="1"
         id="stop993" /></radialGradient><radialGradient
       fx="540.38617"
       fy="350.2478"
       cx="540.38617"
       cy="350.2478"
       r="325"
       gradientUnits="userSpaceOnUse"
       gradientTransform="matrix(0.57911849,0,0,-0.57911849,-79.409622,510.24698)"
       spreadMethod="pad"
       id="radialGradient1001"><stop
         style="stop-opacity:1;stop-color:#000000"
         offset="0"
         id="stop997" /><stop
         style="stop-opacity:1;stop-color:#000000"
         offset="1"
         id="stop999" /></radialGradient><pattern
       patternTransform="matrix(0.41442296,0,0,0.41442296,137.12155,-2.8888574)"
       patternUnits="userSpaceOnUse"
       x="0"
       y="0"
       width="272"
       height="251"
       id="pattern1018"><defs
         id="defs1010"><mask
           maskUnits="userSpaceOnUse"
           x="0"
           y="0"
           width="1"
           height="1"
           id="_mask0"><g
             id="g1007"><g
               clip-path="url(#clipPath989)"
               id="g1005"><path
                 d="m 88,182 272,0 0,251 -272,0 0,-251 z"
                 style="fill:url(#radialGradient995);fill-opacity:1;fill-rule:evenodd;stroke:none"
                 id="path1003" /></g></g></mask></defs><g
         id="g1012" /><g
         mask="url(#_mask0)"
         id="g1016"><path
           d="m 88,182 272,0 0,251 -272,0 0,-251 z"
           style="fill:url(#radialGradient1001);fill-opacity:1;fill-rule:evenodd;stroke:none"
           id="path1014" /></g></pattern><clipPath
       clipPathUnits="userSpaceOnUse"
       id="clipPath1116"><path
         d="M 0,86 H 276 V 343 H 0 Z"
         id="path1114" /></clipPath><radialGradient
       fx="265.19116"
       fy="216.5"
       cx="265.19116"
       cy="216.5"
       r="325"
       gradientUnits="userSpaceOnUse"
       gradientTransform="matrix(0.59180677,0,0,-0.59180677,-29.155792,342.53253)"
       spreadMethod="pad"
       id="radialGradient1122"><stop
         style="stop-opacity:0;stop-color:#ffffff"
         offset="0"
         id="stop1118" /><stop
         style="stop-opacity:0.34900435;stop-color:#ffffff"
         offset="1"
         id="stop1120" /></radialGradient><radialGradient
       fx="265.19116"
       fy="216.5"
       cx="265.19116"
       cy="216.5"
       r="325"
       gradientUnits="userSpaceOnUse"
       gradientTransform="matrix(0.59180677,0,0,-0.59180677,-29.155792,342.53253)"
       spreadMethod="pad"
       id="radialGradient1128"><stop
         style="stop-opacity:1;stop-color:#000000"
         offset="0"
         id="stop1124" /><stop
         style="stop-opacity:1;stop-color:#000000"
         offset="1"
         id="stop1126" /></radialGradient><pattern
       patternTransform="matrix(0.40553776,0,0,0.40553776,49.265728,-286.22085)"
       patternUnits="userSpaceOnUse"
       x="0"
       y="0"
       width="276"
       height="257"
       id="pattern1145"><defs
         id="defs1137"><mask
           maskUnits="userSpaceOnUse"
           x="0"
           y="0"
           width="1"
           height="1"
           id="_mask1"><g
             id="g1134"><g
               clip-path="url(#clipPath1116)"
               id="g1132"><path
                 d="m 0,86 276,0 0,257 L 0,343 0,86 Z"
                 style="fill:url(#radialGradient1122);fill-opacity:1;fill-rule:evenodd;stroke:none"
                 id="path1130" /></g></g></mask></defs><g
         id="g1139" /><g
         mask="url(#_mask1)"
         id="g1143"><path
           d="m 0,86 276,0 0,257 L 0,343 0,86 Z"
           style="fill:url(#radialGradient1128);fill-opacity:1;fill-rule:evenodd;stroke:none"
           id="path1141" /></g></pattern><clipPath
       clipPathUnits="userSpaceOnUse"
       id="clipPath2025"><g
         id="g2033"
         clip-path="url(#clipPath899)"
         transform="matrix(1.1762727,0,0,-1.1762727,-1337.0508,1897.9609)"><g
           id="g2031"
           clip-path="url(#clipPath905)"><g
             id="g2029"
             transform="matrix(-2.0812414,0,0,-2.0778375,1629.7291,1201.5944)"><path
               d="M 250.00301,433.01401 H 0 L 125.003,216.506 250.00301,0 374.99899,216.506 500.00201,433.01401 Z"
               style="fill:#f22f54;fill-opacity:1;fill-rule:nonzero;stroke:none"
               id="path2027" /></g></g></g></clipPath><style
       id="style4154">.cls-1{fill:none;}.cls-2{fill:#1da1f2;}</style><linearGradient
       inkscape:collect="always"
       xlink:href="#Pink"
       id="linearGradient1470"
       x1="0"
       y1="500.00001"
       x2="1000"
       y2="500.00001"
       gradientUnits="userSpaceOnUse" /><linearGradient
       inkscape:collect="always"
       xlink:href="#Purple"
       id="linearGradient1476"
       x1="0"
       y1="249.65661"
       x2="1000"
       y2="249.65661"
       gradientUnits="userSpaceOnUse" /><linearGradient
       inkscape:collect="always"
       xlink:href="#White"
       id="linearGradient1014"
       gradientUnits="userSpaceOnUse"
       gradientTransform="matrix(0.31999998,0,0,0.31999998,5.7905134,-7.1280165)"
       x1="52.312585"
       y1="273.68613"
       x2="1760.7856"
       y2="273.68613" /><linearGradient
       inkscape:collect="always"
       xlink:href="#Purple"
       id="linearGradient1058"
       gradientUnits="userSpaceOnUse"
       gradientTransform="matrix(0.31999998,0,0,0.31999998,380.83757,522.80796)"
       x1="937.85669"
       y1="-345.32092"
       x2="2479.3638"
       y2="-345.32092" /><clipPath
       clipPathUnits="userSpaceOnUse"
       id="clipPath724"><path
         d="m -94.9947,941.66317 h -182.465 l 91.2336,-157.8759 91.2314,-157.8744 91.2285,157.8744 91.2337,157.8759 z"
         style="fill:#341334;fill-opacity:1;fill-rule:nonzero;stroke:none;stroke-width:0.729524"
         id="path726" /></clipPath></defs><sodipodi:namedview
     pagecolor="#ffffff"
     bordercolor="#666666"
     borderopacity="1"
     objecttolerance="10"
     gridtolerance="10"
     guidetolerance="10"
     inkscape:pageopacity="0"
     inkscape:pageshadow="2"
     inkscape:window-width="1393"
     inkscape:window-height="872"
     id="namedview835"
     showgrid="false"
     inkscape:zoom="0.40327591"
     inkscape:cx="715.39111"
     inkscape:cy="622.40266"
     inkscape:window-x="96"
     inkscape:window-y="38"
     inkscape:window-maximized="0"
     inkscape:current-layer="g533"
     inkscape:document-rotation="0"
     inkscape:showpageshadow="2"
     inkscape:pagecheckerboard="0"
     inkscape:deskcolor="#d1d1d1" /><path
     d="M 0,2.043254e-5 H 1000 V 1000 H 0 Z"
     style="display:inline;fill:url(#linearGradient1470);fill-opacity:1;fill-rule:nonzero;stroke:none;stroke-width:1.76074"
     id="path867" /><path
     d="M 0,2.043254e-5 H 1000 V 499.3132 H 0 Z"
     style="fill:url(#linearGradient1476);fill-opacity:1;fill-rule:nonzero;stroke:none;stroke-width:1.64538"
     id="path879" /><g
     id="g670"
     transform="matrix(2.2806921,0,0,2.2806921,102.87817,-676.15389)"><path
       d="m 65.04251,606.75846 c -2.58127,0 -3.73039,-0.80605 -5.31687,-1.92932 -1.81803,-1.27763 -4.07341,-2.87254 -8.29261,-2.87254 -4.21919,0 -6.47457,1.59491 -8.28403,2.87254 -1.58648,1.12327 -2.73561,1.92932 -5.31687,1.92932 -2.58126,0 -3.73038,-0.80605 -5.31687,-1.92932 -1.81803,-1.27763 -4.07341,-2.87254 -8.2926,-2.87254 -4.2192,0 -6.47458,1.59491 -8.28403,2.87254 -1.58649,1.12327 -2.73562,1.92932 -5.31687,1.92932 -2.5812597,0 -3.7303897,-0.80605 -5.3168797,-1.92932 -1.8266,-1.27763 -4.08197,-2.87254 -8.2926,-2.87254 -4.21919,0 -6.47458,1.59491 -8.2840303,2.87254 -1.58649,1.12327 -2.73561,1.92932 -5.316869,1.92932 -2.581258,0 -3.730387,-0.80605 -5.316873,-1.92932 -1.826596,-1.27763 -4.081984,-2.87254 -8.301171,-2.87254 -4.219197,0 -6.474579,1.59491 -8.284028,2.87254 -1.586487,1.12327 -2.735616,1.92932 -5.316874,1.92932 -2.581254,0 -3.730383,-0.80605 -5.31687,-1.92932 -1.818035,-1.27763 -4.073417,-2.87254 -8.292614,-2.87254 -4.21919,0 -6.474575,1.59491 -8.284025,2.87254 -1.586486,1.12327 -2.735619,1.92932 -5.316873,1.92932 -2.581251,0 -3.730387,-0.80605 -5.31687,-1.92932 -1.818029,-1.27763 -4.08199,-2.87254 -8.292607,-2.87254 -4.210616,0 -6.474577,1.59491 -8.292605,2.87254 -1.586485,1.12327 -2.735618,1.92932 -5.316871,1.92932 -2.58125,0 -3.73039,-0.80605 -5.31687,-1.92932 -1.81803,-1.27763 -4.07341,-2.87254 -8.29261,-2.87254 -4.21919,0 -6.47457,1.59491 -8.28403,2.87254 -1.58648,1.12327 -2.73561,1.92932 -5.31687,1.92932 -2.58125,0 -3.73038,-0.80605 -5.31687,-1.92932 -1.81802,-1.27763 -4.07341,-2.87254 -8.2926,-2.87254 -1.42355,0 -2.57268,1.14902 -2.57268,2.57242 0,1.42339 1.14913,2.57241 2.57268,2.57241 2.58125,0 3.73038,0.80602 5.31687,1.92931 1.80945,1.27764 4.06483,2.87255 8.28403,2.87255 4.2192,0 6.47458,-1.59491 8.28403,-2.87255 1.58648,-1.12329 2.73561,-1.92931 5.31687,-1.92931 2.58126,0 3.73039,0.80602 5.31687,1.92931 1.8266,1.27764 4.08198,2.87255 8.30118,2.87255 4.219195,0 6.474577,-1.59491 8.284027,-2.87255 1.586486,-1.12329 2.735618,-1.92931 5.316873,-1.92931 2.581251,0 3.730383,0.80602 5.31687,1.92931 1.809452,1.27764 4.064835,2.87255 8.284031,2.87255 4.219197,0 6.474579,-1.59491 8.284028,-2.87255 1.603639,-1.12329 2.744192,-1.92931 5.334022,-1.92931 2.581255,0 3.730387,0.80602 5.316874,1.92931 1.809449,1.27764 4.064831,2.87255 8.284028,2.87255 4.219184,0 6.474576,-1.59491 8.284028,-2.87255 1.586487,-1.12329 2.735616,-1.92931 5.31687,-1.92931 2.581248,0 3.730387,0.80602 5.316874,1.92931 1.809443,1.27764 4.064831,2.87255 8.284018,2.87255 4.219197,0 6.474577,-1.59491 8.2840273,-2.87255 1.58649,-1.12329 2.73562,-1.92931 5.31687,-1.92931 2.58126001,0 3.73039001,0.80602 5.31687,1.92931 1.80946,1.27764 4.06484,2.87255 8.2840297,2.87255 4.21919,0 6.47458,-1.59491 8.28403,-2.87255 1.58649,-1.12329 2.73562,-1.92931 5.31687,-1.92931 2.58125,0 3.73039,0.80602 5.31687,1.92931 1.80945,1.27764 4.06484,2.87255 8.28404,2.87255 4.21919,0 6.47458,-1.59491 8.28403,-2.87255 1.58649,-1.12329 2.73562,-1.92931 5.31687,-1.92931 2.58127,0 3.73039,0.80602 5.31687,1.92931 1.80947,1.27764 4.06484,2.87255 8.28404,2.87255 1.42356,0 2.57268,-1.14903 2.57268,-2.57242 0,-1.42342 -1.09767,-2.57241 -2.52122,-2.57241 z"
       style="fill:#341334;fill-opacity:1;fill-rule:nonzero;stroke:none;stroke-width:0.0857517"
       id="path1183" /><path
       d="m 65.46059,624.73612 c -2.58126,0 -3.73038,-0.80605 -5.31687,-1.92931 -1.81802,-1.27764 -4.07341,-2.87255 -8.2926,-2.87255 -4.21919,0 -6.47458,1.59491 -8.28403,2.87255 -1.58649,1.12326 -2.73562,1.92931 -5.31687,1.92931 -2.58126,0 -3.73039,-0.80605 -5.31687,-1.92931 -1.81803,-1.27764 -4.07341,-2.87255 -8.29261,-2.87255 -4.21919,0 -6.47457,1.59491 -8.28403,2.87255 -1.58648,1.12326 -2.73561,1.92931 -5.31687,1.92931 -2.5812497,0 -3.7303797,-0.80605 -5.3168697,-1.92931 -1.8266,-1.27764 -4.08198,-2.87255 -8.2926,-2.87255 -4.2192,0 -6.47458,1.59491 -8.2840303,2.87255 -1.58649,1.12326 -2.73562,1.92931 -5.316876,1.92931 -2.581254,0 -3.730384,-0.80605 -5.31687,-1.92931 -1.826595,-1.27764 -4.081984,-2.87255 -8.301171,-2.87255 -4.219196,0 -6.474579,1.59491 -8.284028,2.87255 -1.586486,1.12326 -2.735616,1.92931 -5.316873,1.92931 -2.581255,0 -3.730384,-0.80605 -5.31687,-1.92931 -1.818035,-1.27764 -4.073421,-2.87255 -8.292614,-2.87255 -4.21919,0 -6.474579,1.59491 -8.284029,2.87255 -1.586483,1.12326 -2.735615,1.92931 -5.31687,1.92931 -2.581254,0 -3.730387,-0.80605 -5.31687,-1.92931 -1.818028,-1.27764 -4.08199,-2.87255 -8.292607,-2.87255 -4.210616,0 -6.474577,1.59491 -8.292605,2.87255 -1.586485,1.12326 -2.735617,1.92931 -5.316871,1.92931 -2.581256,0 -3.730386,-0.80605 -5.316866,-1.92931 -1.81803,-1.27764 -4.07341,-2.87255 -8.29261,-2.87255 -4.2192,0 -6.47458,1.59491 -8.28403,2.87255 -1.58649,1.12326 -2.73562,1.92931 -5.31687,1.92931 -2.58126,0 -3.73039,-0.80605 -5.31687,-1.92931 -1.81803,-1.27764 -4.07341,-2.87255 -8.29261,-2.87255 -1.42355,0 -2.57268,1.14903 -2.57268,2.57242 0,1.42339 1.14913,2.57241 2.57268,2.57241 2.58126,0 3.73039,0.80602 5.31688,1.92932 1.80945,1.27763 4.06483,2.87254 8.28403,2.87254 4.21919,0 6.47457,-1.59491 8.28402,-2.87254 1.58649,-1.1233 2.73562,-1.92932 5.31688,-1.92932 2.58125,0 3.73038,0.80602 5.31687,1.92932 1.8266,1.27763 4.08198,2.87254 8.301176,2.87254 4.219196,0 6.474577,-1.59491 8.284027,-2.87254 1.586486,-1.1233 2.735618,-1.92932 5.316873,-1.92932 2.581251,0 3.730384,0.80602 5.31687,1.92932 1.809453,1.27763 4.064835,2.87254 8.284031,2.87254 4.219197,0 6.474576,-1.59491 8.284029,-2.87254 1.603635,-1.1233 2.744192,-1.92932 5.334022,-1.92932 2.581254,0 3.730387,0.80602 5.31687,1.92932 1.809453,1.27763 4.064835,2.87254 8.284031,2.87254 4.219184,0 6.474576,-1.59491 8.284029,-2.87254 1.586486,-1.1233 2.735615,-1.92932 5.31687,-1.92932 2.581248,0 3.730387,0.80602 5.316873,1.92932 1.809443,1.27763 4.064832,2.87254 8.284019,2.87254 4.2192,0 6.4745803,-1.59491 8.2840303,-2.87254 1.58648,-1.1233 2.73561,-1.92932 5.31687,-1.92932 2.58126001,0 3.73038,0.80602 5.31687,1.92932 1.80945,1.27763 4.06484,2.87254 8.2840297,2.87254 4.21919,0 6.47458,-1.59491 8.28403,-2.87254 1.58648,-1.1233 2.73562,-1.92932 5.31687,-1.92932 2.58125,0 3.73038,0.80602 5.31687,1.92932 1.80944,1.27763 4.06484,2.87254 8.28404,2.87254 4.21919,0 6.47458,-1.59491 8.28403,-2.87254 1.58648,-1.1233 2.73561,-1.92932 5.31687,-1.92932 2.58126,0 3.73038,0.80602 5.31687,1.92932 1.80946,1.27763 4.06484,2.87254 8.28404,2.87254 1.42356,0 2.57268,-1.14902 2.57268,-2.57242 0,-1.42342 -1.09768,-2.57241 -2.52122,-2.57241 z"
       style="fill:#341334;fill-opacity:1;fill-rule:nonzero;stroke:none;stroke-width:0.0857517"
       id="path1187" /><path
       d="m 64.57797,643.36412 c -2.58127,0 -3.73039,-0.80605 -5.31687,-1.92931 -1.81803,-1.27764 -4.07341,-2.87255 -8.29261,-2.87255 -4.21918,0 -6.47458,1.59491 -8.28402,2.87255 -1.58649,1.12326 -2.73562,1.92931 -5.31688,1.92931 -2.58126,0 -3.73038,-0.80605 -5.31687,-1.92931 -1.81803,-1.27764 -4.07341,-2.87255 -8.2926,-2.87255 -4.2192,0 -6.47458,1.59491 -8.28403,2.87255 -1.58649,1.12326 -2.73562,1.92931 -5.31687,1.92931 -2.5812597,0 -3.7303897,-0.80605 -5.3168697,-1.92931 -1.82661,-1.27764 -4.08197999,-2.87255 -8.29261,-2.87255 -4.21919,0 -6.47458,1.59491 -8.2840303,2.87255 -1.58648,1.12326 -2.73561,1.92931 -5.31687,1.92931 -2.581254,0 -3.730384,-0.80605 -5.31687,-1.92931 -1.826595,-1.27764 -4.081987,-2.87255 -8.301171,-2.87255 -4.219196,0 -6.474578,1.59491 -8.284031,2.87255 -1.586483,1.12326 -2.735616,1.92931 -5.31687,1.92931 -2.581254,0 -3.730387,-0.80605 -5.31687,-1.92931 -1.818039,-1.27764 -4.073421,-2.87255 -8.292614,-2.87255 -4.21919,0 -6.474579,1.59491 -8.284028,2.87255 -1.586487,1.12326 -2.735616,1.92931 -5.316871,1.92931 -2.581254,0 -3.730386,-0.80605 -5.316873,-1.92931 -1.818025,-1.27764 -4.081987,-2.87255 -8.292604,-2.87255 -4.210616,0 -6.474577,1.59491 -8.292605,2.87255 -1.586486,1.12326 -2.735618,1.92931 -5.316872,1.92931 -2.581251,0 -3.730381,-0.80605 -5.316871,-1.92931 -1.81803,-1.27764 -4.07341,-2.87255 -8.2926,-2.87255 -4.2192,0 -6.47458,1.59491 -8.28403,2.87255 -1.58649,1.12326 -2.73562,1.92931 -5.31688,1.92931 -2.58125,0 -3.73038,-0.80605 -5.31687,-1.92931 -1.81802,-1.27764 -4.07341,-2.87255 -8.2926,-2.87255 -1.42355,0 -2.57268,1.14903 -2.57268,2.57242 0,1.42339 1.14913,2.57241 2.57268,2.57241 2.58126,0 3.73039,0.80602 5.31687,1.92932 1.80945,1.27763 4.06483,2.87254 8.28403,2.87254 4.2192,0 6.47458,-1.59491 8.28403,-2.87254 1.58649,-1.1233 2.73562,-1.92932 5.31687,-1.92932 2.58126,0 3.73039,0.80602 5.31687,1.92932 1.8266,1.27763 4.08199,2.87254 8.301181,2.87254 4.219196,0 6.474578,-1.59491 8.284027,-2.87254 1.586486,-1.1233 2.735618,-1.92932 5.316871,-1.92932 2.581254,0 3.730387,0.80602 5.316873,1.92932 1.809453,1.27763 4.064835,2.87254 8.284031,2.87254 4.219194,0 6.474576,-1.59491 8.284026,-2.87254 1.603638,-1.1233 2.744191,-1.92932 5.334025,-1.92932 2.581254,0 3.730384,0.80602 5.31687,1.92932 1.809453,1.27763 4.064835,2.87254 8.284028,2.87254 4.219187,0 6.474579,-1.59491 8.284032,-2.87254 1.586483,-1.1233 2.735615,-1.92932 5.31687,-1.92932 2.581248,0 3.730387,0.80602 5.31687,1.92932 1.809443,1.27763 4.064835,2.87254 8.284022,2.87254 4.219194,0 6.474574,-1.59491 8.2840243,-2.87254 1.58649,-1.1233 2.73562,-1.92932 5.31688,-1.92932 2.58125001,0 3.73038001,0.80602 5.31687,1.92932 1.80945,1.27763 4.06483,2.87254 8.2840297,2.87254 4.21918,0 6.47457,-1.59491 8.28402,-2.87254 1.58649,-1.1233 2.73562,-1.92932 5.31688,-1.92932 2.58124,0 3.73038,0.80602 5.31687,1.92932 1.80944,1.27763 4.06483,2.87254 8.28404,2.87254 4.21918,0 6.47457,-1.59491 8.28402,-2.87254 1.58649,-1.1233 2.73562,-1.92932 5.31688,-1.92932 2.58126,0 3.73038,0.80602 5.31687,1.92932 1.80946,1.27763 4.06483,2.87254 8.28403,2.87254 1.42356,0 2.57268,-1.14902 2.57268,-2.57242 0,-1.42342 -1.09767,-2.57241 -2.52121,-2.57241 z"
       style="fill:#341334;fill-opacity:1;fill-rule:nonzero;stroke:none;stroke-width:0.0857517"
       id="path1191" /></g><circle
     style="fill:#ffffff;stroke-width:0.738434"
     id="path4085"
     cx="878.56207"
     cy="145.62645"
     r="154.54005" /><text
     style="font-style:normal;font-variant:normal;font-weight:normal;font-stretch:normal;font-size:18.6667px;font-family:'Courier New';-inkscape-font-specification:'Courier New, Normal';font-variant-ligatures:normal;font-variant-caps:normal;font-variant-numeric:normal;font-variant-east-asian:normal;writing-mode:lr-tb;fill:#f22f54;fill-opacity:1;fill-rule:nonzero;stroke:none;stroke-width:1"
     id="text1197"
     x="278.33539"
     y="737.47559"><tspan
       sodipodi:role="line"
       style="font-style:normal;font-variant:normal;font-weight:bold;font-stretch:normal;font-size:40px;font-family:'Courier New';-inkscape-font-specification:'Courier New, Bold';font-variant-ligatures:normal;font-variant-caps:normal;font-variant-numeric:normal;font-variant-east-asian:normal;fill:url(#White);stroke-width:1"
       x="278.33539"
       y="737.47559"
       id="tspan2175">TUESDAYS 6PM</tspan><tspan
       sodipodi:role="line"
       style="font-style:normal;font-variant:normal;font-weight:bold;font-stretch:normal;font-size:40px;font-family:'Courier New';-inkscape-font-specification:'Courier New, Bold';font-variant-ligatures:normal;font-variant-caps:normal;font-variant-numeric:normal;font-variant-east-asian:normal;fill:url(#White);stroke-width:1"
       x="278.33539"
       y="787.47559"
       id="tspan1379">NEW YORK TIME</tspan></text><text
     xml:space="preserve"
     style="font-style:normal;font-variant:normal;font-weight:bold;font-stretch:normal;font-size:66.6665px;line-height:1;font-family:Rockwell;-inkscape-font-specification:'Rockwell, Bold';font-variant-ligatures:normal;font-variant-caps:normal;font-variant-numeric:normal;font-variant-east-asian:normal;fill:url(#linearGradient1014);fill-opacity:1;stroke:none;stroke-width:1"
     x="19.796169"
     y="63.426826"
     id="text1321"><tspan
       sodipodi:role="line"
       x="19.796169"
       y="63.426826"
       style="font-style:normal;font-variant:normal;font-weight:bold;font-stretch:normal;font-size:40px;font-family:Rockwell;-inkscape-font-specification:'Rockwell, Bold';font-variant-ligatures:normal;font-variant-caps:normal;font-variant-numeric:normal;font-variant-east-asian:normal;fill:url(#linearGradient1014);fill-opacity:1;stroke-width:1"
       id="tspan166">COMMUNITY SERVICE HOUR</tspan></text><text
     xml:space="preserve"
     style="font-style:normal;font-weight:normal;font-size:40px;line-height:1.25;font-family:sans-serif;fill:#000000;fill-opacity:1;stroke:none;stroke-width:1"
     x="30.361446"
     y="280.33734"
     id="text1357"><tspan
       sodipodi:role="line"
       id="tspan1355"
       x="30.361446"
       y="280.33734"
       style="stroke-width:1" /></text><g
     id="g1800"
     transform="matrix(0.14888264,0,0,0.14888264,202.09048,862.0487)"><path
       id="XMLID_5_"
       class="st0"
       d="m -399.92473,532.10278 -45.625,45.625 h -71.5625 l -39.06251,39.0625 v -39.0625 h -58.75 V 388.66527 h 215.00001 z m -241.25001,-169.37501 -13.125,52.1875 v 234.68751 h 58.75 v 32.50001 h 32.5 l 32.50001,-32.50001 h 52.5 l 104.37501,-104.375 V 362.72777 Z"
       style="stroke-width:3.125" /><path
       id="XMLID_8_"
       class="st0"
       d="m -543.36223,518.97778 h 25.9375 v -78.12501 h -25.9375 z m 71.875,0 h 25.9375 v -78.12501 h -25.9375 z"
       style="stroke-width:3.125" /></g><text
     style="font-style:normal;font-variant:normal;font-weight:normal;font-stretch:normal;font-size:26.6667px;font-family:'Courier New';-inkscape-font-specification:'Courier New, Normal';font-variant-ligatures:normal;font-variant-caps:normal;font-variant-numeric:normal;font-variant-east-asian:normal;writing-mode:lr-tb;fill:#6441a5;fill-opacity:1;fill-rule:nonzero;stroke:none;stroke-width:1"
     id="text1808"
     x="160.97192"
     y="958.65863"><tspan
       sodipodi:role="line"
       style="font-style:normal;font-variant:normal;font-weight:bold;font-stretch:normal;font-size:66.6667px;font-family:'Courier New';-inkscape-font-specification:'Courier New, Bold';font-variant-ligatures:normal;font-variant-caps:normal;font-variant-numeric:normal;font-variant-east-asian:normal;fill:#6441a5;fill-opacity:1;stroke-width:1"
       x="160.97192"
       y="958.65863"
       id="tspan1806">@fulldecent</tspan></text><text
     xml:space="preserve"
     id="text1854"
     style="font-style:normal;font-weight:normal;font-size:125px;line-height:1.25;font-family:sans-serif;white-space:pre;shape-inside:url(#rect1856);display:inline;fill:#000000;fill-opacity:1;stroke:none"
     transform="matrix(0.31999998,0,0,0.31999998,0,1.3730666e-5)" /><g
     id="g533"
     transform="translate(1237.3662,416.58823)"><path
       d="M -381.70414,567.22971 H -552.7055 l 85.50172,-147.95708 85.49964,-147.9557 85.49692,147.9557 85.50173,147.95708 z"
       style="fill:#341334;fill-opacity:1;fill-rule:nonzero;stroke:none;stroke-width:0.68369"
       id="path1032" /><image
       width="422.97293"
       height="317.22968"
       preserveAspectRatio="none"
       xlink:href="../Elements/Terminal%20directory%20listing.jpeg"
       id="image718"
       x="-301.58194"
       y="627.44745"
       clip-path="url(#clipPath724)"
       transform="matrix(1.0631335,0,0,1.0631335,-230.45219,-446.28241)" /></g><rect
     class="cls-1"
     width="400"
     height="400"
     id="rect4160"
     x="-418.22076"
     y="59.228687"
     style="stroke-width:1" /><path
     class="cls-2"
     d="m 48.654479,965.19531 c 23.56253,0 36.45021,-19.52138 36.45021,-36.45021 0,-0.55449 0,-1.10646 -0.0374,-1.65593 a 26.065131,26.065131 0 0 0 6.39139,-6.63117 25.570603,25.570603 0 0 1 -7.35798,2.01558 12.855235,12.855235 0 0 0 5.63213,-7.08576 25.673005,25.673005 0 0 1 -8.13472,3.10954 12.822766,12.822766 0 0 0 -21.83168,11.68384 36.370299,36.370299 0 0 1 -26.40234,-13.3847 12.820268,12.820268 0 0 0 3.96624,17.10118 12.715368,12.715368 0 0 1 -5.81446,-1.60349 c 0,0.0524 0,0.10743 0,0.16237 a 12.815273,12.815273 0 0 0 10.27769,12.55801 12.790297,12.790297 0 0 1 -5.78447,0.21978 12.825264,12.825264 0 0 0 11.96857,8.89651 25.705475,25.705475 0 0 1 -15.90982,5.49475 26.077619,26.077619 0 0 1 -3.04957,-0.1848 36.267899,36.267899 0 0 0 19.63625,5.74452"
     id="path4162"
     style="stroke-width:0.249762" /><text
     xml:space="preserve"
     style="font-style:normal;font-variant:normal;font-weight:bold;font-stretch:normal;font-size:66.6665px;line-height:1;font-family:Rockwell;-inkscape-font-specification:'Rockwell, Bold';font-variant-ligatures:normal;font-variant-caps:normal;font-variant-numeric:normal;font-variant-east-asian:normal;fill:#ffffff;fill-opacity:1;stroke:none;stroke-width:1"
     x="20.13471"
     y="240.57443"
     id="text727"><tspan
       sodipodi:role="line"
       x="20.13471"
       y="240.57443"
       style="font-style:normal;font-variant:normal;font-weight:bold;font-stretch:normal;font-size:66.6667px;font-family:Rockwell;-inkscape-font-specification:'Rockwell, Bold';font-variant-ligatures:normal;font-variant-caps:normal;font-variant-numeric:normal;font-variant-east-asian:normal;fill:#ffffff;fill-opacity:1;stroke-width:1"
       id="tspan789">Build your first NFT</tspan><tspan
       sodipodi:role="line"
       x="20.13471"
       y="307.24115"
       style="font-style:normal;font-variant:normal;font-weight:bold;font-stretch:normal;font-size:66.6667px;font-family:Rockwell;-inkscape-font-specification:'Rockwell, Bold';font-variant-ligatures:normal;font-variant-caps:normal;font-variant-numeric:normal;font-variant-east-asian:normal;fill:#ffffff;fill-opacity:1;stroke-width:1"
       id="tspan793">smart contract</tspan></text><text
     xml:space="preserve"
     style="font-style:normal;font-variant:normal;font-weight:bold;font-stretch:normal;font-size:66.6666px;line-height:1;font-family:Rockwell;-inkscape-font-specification:'Rockwell, Bold';font-variant-ligatures:normal;font-variant-caps:normal;font-variant-numeric:normal;font-variant-east-asian:normal;fill:url(#linearGradient1058);fill-opacity:1;stroke:none;stroke-width:1"
     x="775.09906"
     y="425.93799"
     id="text1484"
     transform="rotate(-20.749677)"><tspan
       sodipodi:role="line"
       x="775.09906"
       y="425.93799"
       style="font-style:normal;font-variant:normal;font-weight:bold;font-stretch:normal;font-size:40px;font-family:Rockwell;-inkscape-font-specification:'Rockwell, Bold';font-variant-ligatures:normal;font-variant-caps:normal;font-variant-numeric:normal;font-variant-east-asian:normal;text-align:center;text-anchor:middle;fill:url(#linearGradient1058);fill-opacity:1;stroke-width:1"
       id="tspan1482">Beginner</tspan><tspan
       sodipodi:role="line"
       x="775.09906"
       y="492.60458"
       style="font-style:normal;font-variant:normal;font-weight:bold;font-stretch:normal;font-size:40px;font-family:Rockwell;-inkscape-font-specification:'Rockwell, Bold';font-variant-ligatures:normal;font-variant-caps:normal;font-variant-numeric:normal;font-variant-east-asian:normal;text-align:center;text-anchor:middle;fill:url(#linearGradient1058);fill-opacity:1;stroke-width:1"
       id="tspan4225">friendly</tspan></text><g
     id="g171"
     transform="matrix(2.6694554,0,0,2.6694554,-359.71733,266.42874)"><path
       d="m 1809.2693,82.567066 c -7.5684,0 -10.9377,-2.363317 -15.5894,-5.656875 -5.3306,-3.746109 -11.9435,-8.422459 -24.3145,-8.422459 -12.3709,0 -18.9839,4.67635 -24.2893,8.422459 -4.6517,3.293558 -8.021,5.656875 -15.5894,5.656875 -7.5684,0 -10.9377,-2.363317 -15.5894,-5.656875 -5.3306,-3.746109 -11.9435,-8.422459 -24.3145,-8.422459 -12.3709,0 -18.9839,4.67635 -24.2893,8.422459 -4.6517,3.293558 -8.021,5.656875 -15.5894,5.656875 -7.5684,0 -10.9378,-2.363317 -15.5894,-5.656875 -5.3558,-3.746109 -11.9687,-8.422459 -24.3145,-8.422459 -12.371,0 -18.9839,4.67635 -24.2893,8.422459 -4.6517,3.293558 -8.021,5.656875 -15.5895,5.656875 -7.5684,0 -10.9377,-2.363317 -15.5894,-5.656875 -5.3557,-3.746109 -11.9686,-8.422459 -24.3396,-8.422459 -12.3709,0 -18.9838,4.67635 -24.2893,8.422459 -4.6517,3.293558 -8.021,5.656875 -15.5894,5.656875 -7.5684,0 -10.9377,-2.363317 -15.5894,-5.656875 -5.3306,-3.746109 -11.9436,-8.422459 -24.3145,-8.422459 -12.371,0 -18.9839,4.67635 -24.2893,8.422459 -4.6517,3.293558 -8.021,5.656875 -15.5894,5.656875 -7.5685,0 -10.9378,-2.363317 -15.5895,-5.656875 -5.3305,-3.746109 -11.9686,-8.422459 -24.3144,-8.422459 -12.3458,0 -18.9839,4.67635 -24.3145,8.422459 -4.6517,3.293558 -8.021,5.656875 -15.5894,5.656875 -7.5684,0 -10.9378,-2.363317 -15.5894,-5.656875 -5.3306,-3.746109 -11.9435,-8.422459 -24.3145,-8.422459 -12.371,0 -18.9839,4.67635 -24.2893,8.422459 -4.6517,3.293558 -8.021,5.656875 -15.5895,5.656875 -7.5684,0 -10.9377,-2.363317 -15.5894,-5.656875 -5.3305,-3.746109 -11.9435,-8.422459 -24.3144,-8.422459 -4.174,0 -7.5433,3.368984 -7.5433,7.5425 0,4.173517 3.3693,7.542501 7.5433,7.542501 7.5684,0 10.9377,2.363317 15.5894,5.656875 5.3054,3.746109 11.9183,8.422459 24.2893,8.422459 12.371,0 18.9839,-4.67635 24.2893,-8.422459 4.6517,-3.293558 8.021,-5.656875 15.5895,-5.656875 7.5684,0 10.9377,2.363317 15.5894,5.656875 5.3557,3.746109 11.9686,8.422459 24.3396,8.422459 12.3709,0 18.9839,-4.67635 24.2893,-8.422459 4.6517,-3.293558 8.021,-5.656875 15.5894,-5.656875 7.5684,0 10.9378,2.363317 15.5894,5.656875 5.3055,3.746109 11.9184,8.422459 24.2894,8.422459 12.3709,0 18.9839,-4.67635 24.2893,-8.422459 4.702,-3.293558 8.0461,-5.656875 15.6397,-5.656875 7.5684,0 10.9377,2.363317 15.5894,5.656875 5.3054,3.746109 11.9184,8.422459 24.2893,8.422459 12.371,0 18.9839,-4.67635 24.2894,-8.422459 4.6516,-3.293558 8.021,-5.656875 15.5894,-5.656875 7.5684,0 10.9377,2.363317 15.5894,5.656875 5.3054,3.746109 11.9184,8.422459 24.2893,8.422459 12.3709,0 18.9839,-4.67635 24.2893,-8.422459 4.6517,-3.293558 8.021,-5.656875 15.5894,-5.656875 7.5684,0 10.9378,2.363317 15.5894,5.656875 5.3055,3.746109 11.9184,8.422459 24.2894,8.422459 12.3709,0 18.9839,-4.67635 24.2893,-8.422459 4.6517,-3.293558 8.021,-5.656875 15.5894,-5.656875 7.5684,0 10.9377,2.363317 15.5894,5.656875 5.3054,3.746109 11.9184,8.422459 24.2894,8.422459 12.3709,0 18.9839,-4.67635 24.2893,-8.422459 4.6517,-3.293558 8.021,-5.656875 15.5894,-5.656875 7.5685,0 10.9378,2.363317 15.5894,5.656875 5.3055,3.746109 11.9184,8.422459 24.2894,8.422459 4.1739,0 7.5432,-3.368984 7.5432,-7.542501 0,-4.173516 -3.2184,-7.5425 -7.3923,-7.5425 z"
       style="fill:#f22f54;fill-opacity:1;fill-rule:nonzero;stroke:none;stroke-width:0.251429"
       id="path1171"
       transform="matrix(0.31999998,0,0,0.31999998,0,1.3730666e-5)" /><path
       d="m 1810.4952,135.27868 c -7.5684,0 -10.9377,-2.36331 -15.5894,-5.65687 -5.3306,-3.74611 -11.9435,-8.42246 -24.3145,-8.42246 -12.3709,0 -18.9839,4.67635 -24.2893,8.42246 -4.6517,3.29356 -8.021,5.65687 -15.5894,5.65687 -7.5684,0 -10.9377,-2.36331 -15.5894,-5.65687 -5.3306,-3.74611 -11.9435,-8.42246 -24.3145,-8.42246 -12.3709,0 -18.9839,4.67635 -24.2893,8.42246 -4.6517,3.29356 -8.021,5.65687 -15.5894,5.65687 -7.5684,0 -10.9378,-2.36331 -15.5894,-5.65687 -5.3558,-3.74611 -11.9687,-8.42246 -24.3145,-8.42246 -12.371,0 -18.9839,4.67635 -24.2893,8.42246 -4.6517,3.29356 -8.021,5.65687 -15.5895,5.65687 -7.5684,0 -10.9377,-2.36331 -15.5894,-5.65687 -5.3557,-3.74611 -11.9686,-8.42246 -24.3396,-8.42246 -12.3709,0 -18.9838,4.67635 -24.2893,8.42246 -4.6517,3.29356 -8.021,5.65687 -15.5894,5.65687 -7.5684,0 -10.9377,-2.36331 -15.5894,-5.65687 -5.3306,-3.74611 -11.9436,-8.42246 -24.3145,-8.42246 -12.371,0 -18.9839,4.67635 -24.2893,8.42246 -4.6517,3.29356 -8.021,5.65687 -15.5894,5.65687 -7.5685,0 -10.9378,-2.36331 -15.5895,-5.65687 -5.3305,-3.74611 -11.9686,-8.42246 -24.3144,-8.42246 -12.3458,0 -18.9839,4.67635 -24.3145,8.42246 -4.6517,3.29356 -8.021,5.65687 -15.5894,5.65687 -7.5684,0 -10.9378,-2.36331 -15.5894,-5.65687 -5.3306,-3.74611 -11.9435,-8.42246 -24.3145,-8.42246 -12.371,0 -18.9839,4.67635 -24.2893,8.42246 -4.6517,3.29356 -8.021,5.65687 -15.5895,5.65687 -7.5684,0 -10.9377,-2.36331 -15.5894,-5.65687 -5.3305,-3.74611 -11.9435,-8.42246 -24.3144,-8.42246 -4.174,0 -7.5433,3.36898 -7.5433,7.5425 0,4.17352 3.3693,7.5425 7.5433,7.5425 7.5684,0 10.9377,2.36332 15.5894,5.65688 5.3054,3.74611 11.9183,8.42245 24.2893,8.42245 12.371,0 18.9839,-4.67634 24.2893,-8.42245 4.6517,-3.29356 8.021,-5.65688 15.5895,-5.65688 7.5684,0 10.9377,2.36332 15.5894,5.65688 5.3557,3.74611 11.9686,8.42245 24.3396,8.42245 12.3709,0 18.9839,-4.67634 24.2893,-8.42245 4.6517,-3.29356 8.021,-5.65688 15.5894,-5.65688 7.5684,0 10.9378,2.36332 15.5894,5.65688 5.3055,3.74611 11.9184,8.42245 24.2894,8.42245 12.3709,0 18.9839,-4.67634 24.2893,-8.42245 4.702,-3.29356 8.0461,-5.65688 15.6397,-5.65688 7.5684,0 10.9377,2.36332 15.5894,5.65688 5.3054,3.74611 11.9184,8.42245 24.2893,8.42245 12.371,0 18.9839,-4.67634 24.2894,-8.42245 4.6516,-3.29356 8.021,-5.65688 15.5894,-5.65688 7.5684,0 10.9377,2.36332 15.5894,5.65688 5.3054,3.74611 11.9184,8.42245 24.2893,8.42245 12.3709,0 18.9839,-4.67634 24.2893,-8.42245 4.6517,-3.29356 8.021,-5.65688 15.5894,-5.65688 7.5684,0 10.9378,2.36332 15.5894,5.65688 5.3055,3.74611 11.9184,8.42245 24.2894,8.42245 12.3709,0 18.9839,-4.67634 24.2893,-8.42245 4.6517,-3.29356 8.021,-5.65688 15.5894,-5.65688 7.5684,0 10.9377,2.36332 15.5894,5.65688 5.3054,3.74611 11.9184,8.42245 24.2894,8.42245 12.3709,0 18.9839,-4.67634 24.2893,-8.42245 4.6517,-3.29356 8.021,-5.65688 15.5894,-5.65688 7.5685,0 10.9378,2.36332 15.5894,5.65688 5.3055,3.74611 11.9184,8.42245 24.2894,8.42245 4.1739,0 7.5432,-3.36898 7.5432,-7.5425 0,-4.17351 -3.2184,-7.5425 -7.3923,-7.5425 z"
       style="fill:#f22f54;fill-opacity:1;fill-rule:nonzero;stroke:none;stroke-width:0.251429"
       id="path1175"
       transform="matrix(0.31999998,0,0,0.31999998,0,1.3730666e-5)" /><path
       d="m 1807.9073,189.89717 c -7.5684,0 -10.9377,-2.36331 -15.5894,-5.65687 -5.3306,-3.74611 -11.9435,-8.42246 -24.3145,-8.42246 -12.3709,0 -18.9839,4.67635 -24.2893,8.42246 -4.6517,3.29356 -8.021,5.65687 -15.5894,5.65687 -7.5684,0 -10.9377,-2.36331 -15.5894,-5.65687 -5.3306,-3.74611 -11.9435,-8.42246 -24.3145,-8.42246 -12.3709,0 -18.9839,4.67635 -24.2893,8.42246 -4.6517,3.29356 -8.021,5.65687 -15.5894,5.65687 -7.5684,0 -10.9378,-2.36331 -15.5894,-5.65687 -5.3558,-3.74611 -11.9687,-8.42246 -24.3145,-8.42246 -12.371,0 -18.9839,4.67635 -24.2893,8.42246 -4.6517,3.29356 -8.021,5.65687 -15.5895,5.65687 -7.5684,0 -10.9377,-2.36331 -15.5894,-5.65687 -5.3557,-3.74611 -11.9686,-8.42246 -24.3396,-8.42246 -12.3709,0 -18.9838,4.67635 -24.2893,8.42246 -4.6517,3.29356 -8.021,5.65687 -15.5894,5.65687 -7.5684,0 -10.9377,-2.36331 -15.5894,-5.65687 -5.3306,-3.74611 -11.9436,-8.42246 -24.3145,-8.42246 -12.371,0 -18.9839,4.67635 -24.2893,8.42246 -4.6517,3.29356 -8.021,5.65687 -15.5894,5.65687 -7.5685,0 -10.9378,-2.36331 -15.5895,-5.65687 -5.3305,-3.74611 -11.9686,-8.42246 -24.3144,-8.42246 -12.3458,0 -18.9839,4.67635 -24.3145,8.42246 -4.6517,3.29356 -8.021,5.65687 -15.5894,5.65687 -7.5684,0 -10.9378,-2.36331 -15.5894,-5.65687 -5.3306,-3.74611 -11.9435,-8.42246 -24.3145,-8.42246 -12.371,0 -18.9839,4.67635 -24.2893,8.42246 -4.6517,3.29356 -8.021,5.65687 -15.5895,5.65687 -7.5684,0 -10.9377,-2.36331 -15.5894,-5.65687 -5.3305,-3.74611 -11.9435,-8.42246 -24.3144,-8.42246 -4.174,0 -7.5433,3.36898 -7.5433,7.5425 0,4.17352 3.3693,7.5425 7.5433,7.5425 7.5684,0 10.9377,2.36332 15.5894,5.65688 5.3054,3.74611 11.9183,8.42245 24.2893,8.42245 12.371,0 18.9839,-4.67634 24.2893,-8.42245 4.6517,-3.29356 8.021,-5.65688 15.5895,-5.65688 7.5684,0 10.9377,2.36332 15.5894,5.65688 5.3557,3.74611 11.9686,8.42245 24.3396,8.42245 12.3709,0 18.9839,-4.67634 24.2893,-8.42245 4.6517,-3.29356 8.021,-5.65688 15.5894,-5.65688 7.5684,0 10.9378,2.36332 15.5894,5.65688 5.3055,3.74611 11.9184,8.42245 24.2894,8.42245 12.3709,0 18.9839,-4.67634 24.2893,-8.42245 4.702,-3.29356 8.0461,-5.65688 15.6397,-5.65688 7.5684,0 10.9377,2.36332 15.5894,5.65688 5.3054,3.74611 11.9184,8.42245 24.2893,8.42245 12.371,0 18.9839,-4.67634 24.2894,-8.42245 4.6516,-3.29356 8.021,-5.65688 15.5894,-5.65688 7.5684,0 10.9377,2.36332 15.5894,5.65688 5.3054,3.74611 11.9184,8.42245 24.2893,8.42245 12.3709,0 18.9839,-4.67634 24.2893,-8.42245 4.6517,-3.29356 8.021,-5.65688 15.5894,-5.65688 7.5684,0 10.9378,2.36332 15.5894,5.65688 5.3055,3.74611 11.9184,8.42245 24.2894,8.42245 12.3709,0 18.9839,-4.67634 24.2893,-8.42245 4.6517,-3.29356 8.021,-5.65688 15.5894,-5.65688 7.5684,0 10.9377,2.36332 15.5894,5.65688 5.3054,3.74611 11.9184,8.42245 24.2894,8.42245 12.3709,0 18.9839,-4.67634 24.2893,-8.42245 4.6517,-3.29356 8.021,-5.65688 15.5894,-5.65688 7.5685,0 10.9378,2.36332 15.5894,5.65688 5.3055,3.74611 11.9184,8.42245 24.2894,8.42245 4.1739,0 7.5432,-3.36898 7.5432,-7.5425 0,-4.17351 -3.2184,-7.5425 -7.3923,-7.5425 z"
       style="fill:#f22f54;fill-opacity:1;fill-rule:nonzero;stroke:none;stroke-width:0.251429"
       id="path1179"
       transform="matrix(0.31999998,0,0,0.31999998,0,1.3730666e-5)" /></g><style
     type="text/css"
     id="style1777">
	.st0{fill:#6441A5;}
</style><text
     xml:space="preserve"
     style="font-style:normal;font-variant:normal;font-weight:bold;font-stretch:normal;font-size:66.6665px;line-height:0;font-family:Rockwell;-inkscape-font-specification:'Rockwell, Bold';font-variant-ligatures:normal;font-variant-caps:normal;font-variant-numeric:normal;font-variant-east-asian:normal;fill:#ffffff;fill-opacity:1;stroke:none;stroke-width:1"
     x="20.050074"
     y="484.58636"
     id="text4196"><tspan
       style="font-style:normal;font-variant:normal;font-weight:normal;font-stretch:normal;font-size:53.3334px;line-height:1;font-family:Rockwell;-inkscape-font-specification:'Rockwell, Bold';font-variant-ligatures:normal;font-variant-caps:normal;font-variant-numeric:normal;font-variant-east-asian:normal;fill:#ffffff;fill-opacity:1;stroke-width:1"
       sodipodi:role="line"
       id="tspan4217"
       x="20.050074"
       y="484.58636">Special workshop</tspan><tspan
       sodipodi:role="line"
       x="20.050074"
       y="544.58643"
       style="font-style:normal;font-variant:normal;font-weight:normal;font-stretch:normal;font-size:53.3334px;line-height:1.25;font-family:Rockwell;-inkscape-font-specification:'Rockwell, Bold';font-variant-ligatures:normal;font-variant-caps:normal;font-variant-numeric:normal;font-variant-east-asian:normal;fill:#ffffff;fill-opacity:1;stroke-width:1"
       id="tspan4215">• 2023-05-16 What is a token?</tspan><tspan
       sodipodi:role="line"
       x="20.050074"
       y="611.25317"
       style="font-style:normal;font-variant:normal;font-weight:normal;font-stretch:normal;font-size:53.3334px;line-height:1.25;font-family:Rockwell;-inkscape-font-specification:'Rockwell, Bold';font-variant-ligatures:normal;font-variant-caps:normal;font-variant-numeric:normal;font-variant-east-asian:normal;fill:#ffffff;fill-opacity:1;stroke-width:1"
       id="tspan4219">• 2023-05-23 Deploy your contract  </tspan></text><text
     xml:space="preserve"
     style="font-style:normal;font-variant:normal;font-weight:bold;font-stretch:normal;font-size:40px;line-height:1;font-family:Rockwell;-inkscape-font-specification:'Rockwell, Bold';font-variant-ligatures:normal;font-variant-caps:normal;font-variant-numeric:normal;font-variant-east-asian:normal;fill:#ffffff"
     x="-172.86571"
     y="138.29256"
     id="text4233"><tspan
       sodipodi:role="line"
       id="tspan4231"
       x="-172.86571"
       y="138.29256" /></text></svg>
